<?xml version="1.0" encoding="UTF-8"?>
<!DOCTYPE svg PUBLIC "-//W3C//DTD SVG 1.1//EN" "http://www.w3.org/Graphics/SVG/1.1/DTD/svg11.dtd">
<svg xmlns="http://www.w3.org/2000/svg" version="1.1" width="480px" height="480px" style="shape-rendering:geometricPrecision; text-rendering:geometricPrecision; image-rendering:optimizeQuality; fill-rule:evenodd; clip-rule:evenodd" xmlns:xlink="http://www.w3.org/1999/xlink">
<g><path style="opacity:0.917" fill="#0b0b0b" d="M 357.5,0.5 C 364.005,1.20952 370.339,2.70952 376.5,5C 377.081,5.8926 377.415,6.8926 377.5,8C 374.749,15.4931 371.749,22.8265 368.5,30C 368.957,30.414 369.291,30.914 369.5,31.5C 367.718,35.2116 365.718,38.7116 363.5,42C 364.022,42.5613 364.355,43.228 364.5,44C 359.398,55.4518 354.398,67.4518 349.5,80C 376.475,81.2498 403.475,81.9164 430.5,82C 431.081,82.8926 431.415,83.8926 431.5,85C 430.412,90.5173 429.246,96.0173 428,101.5C 427.727,103.329 426.893,104.829 425.5,106C 426.022,106.561 426.355,107.228 426.5,108C 424.621,113.14 422.621,118.14 420.5,123C 421.059,123.725 421.392,124.558 421.5,125.5C 419.553,129.284 418.22,133.284 417.5,137.5C 398.281,204.04 379.281,271.04 360.5,338.5C 360.182,339.647 359.516,340.481 358.5,341C 359.059,341.725 359.392,342.558 359.5,343.5C 357.56,348.453 355.56,353.286 353.5,358C 354.059,358.725 354.392,359.558 354.5,360.5C 345.204,389.929 336.871,418.929 329.5,447.5C 269.267,448.724 209.101,448.724 149,447.5C 116.023,332.746 83.5233,218.246 51.5,104C 49.7132,96.9005 48.3799,89.7339 47.5,82.5C 140.839,82.0816 234.173,81.2483 327.5,80C 327.043,79.586 326.709,79.086 326.5,78.5C 327.522,77.646 328.355,76.646 329,75.5C 338.235,51.7891 347.235,28.4558 356,5.5C 356.5,4.33333 357.333,3.5 358.5,3C 357.748,2.32924 357.414,1.4959 357.5,0.5 Z M 51.5,87.5 C 141.998,86.5006 232.665,86.1673 323.5,86.5C 323.672,88.4918 323.005,90.1585 321.5,91.5C 321.709,92.086 322.043,92.586 322.5,93C 320.428,96.7374 318.428,100.571 316.5,104.5C 317.478,105.801 317.145,106.968 315.5,108C 286.408,186.824 257.075,263.824 227.5,339C 222.344,354.555 216.677,369.888 210.5,385C 210.585,386.107 210.919,387.107 211.5,388C 216.309,390.939 221.475,393.105 227,394.5C 228.892,394.223 230.225,393.223 231,391.5C 259.336,317.301 287.503,243.801 315.5,171C 335.132,168.562 341.632,158.062 335,139.5C 334.25,138.874 333.416,138.374 332.5,138C 332.833,137.667 333.167,137.333 333.5,137C 331.643,135.818 330.643,134.151 330.5,132C 334.942,117.344 340.276,102.511 346.5,87.5C 373.174,86.2223 399.841,86.389 426.5,88C 425.484,88.5194 424.818,89.3527 424.5,90.5C 391.272,207.629 358.272,325.629 325.5,444.5C 267.499,444.667 209.499,444.5 151.5,444C 152.022,443.439 152.355,442.772 152.5,442C 136.355,387.472 121.022,332.639 106.5,277.5C 90.2692,222.192 74.6025,166.692 59.5,111C 57.0479,102.992 54.3813,95.1588 51.5,87.5 Z"/></g>
<g><path style="opacity:0.953" fill="#070707" d="M 141.5,144.5 C 158.67,143.502 166.503,151.502 165,168.5C 160.44,180.655 151.607,184.155 138.5,179C 131.243,171.38 129.576,162.547 133.5,152.5C 135.854,149.479 138.521,146.812 141.5,144.5 Z"/></g>
<g><path style="opacity:0.949" fill="#070707" d="M 220.5,144.5 C 235.145,142.984 243.478,149.484 245.5,164C 242.007,179.896 232.674,184.729 217.5,178.5C 210.853,172.545 208.853,165.211 211.5,156.5C 211.818,155.353 212.484,154.519 213.5,154C 212.978,153.439 212.645,152.772 212.5,152C 215.074,149.254 217.741,146.754 220.5,144.5 Z"/></g>
<g><path style="opacity:0.947" fill="#070707" d="M 325.5,205.5 C 343.531,204.03 351.531,212.196 349.5,230C 342.631,243.737 332.964,246.07 320.5,237C 319.17,235.035 317.836,233.035 316.5,231C 315.227,226.151 315.227,221.318 316.5,216.5C 318.417,211.919 321.417,208.252 325.5,205.5 Z"/></g>
<g><path style="opacity:0.954" fill="#070707" d="M 141.5,221.5 C 156.299,219.542 164.299,225.876 165.5,240.5C 165.067,248.648 161.067,254.481 153.5,258C 144.151,259.792 137.318,256.625 133,248.5C 129.553,237.231 132.386,228.231 141.5,221.5 Z"/></g>
<g><path style="opacity:0.949" fill="#070707" d="M 231.5,221.5 C 240.047,220.085 247.214,222.419 253,228.5C 254.107,232.517 255.273,236.517 256.5,240.5C 255.087,247.337 251.754,252.837 246.5,257C 235.274,260.702 227.274,257.202 222.5,246.5C 220.226,236.085 223.226,227.751 231.5,221.5 Z"/></g>
<g><path style="opacity:0.95" fill="#070707" d="M 189.5,310.5 C 204.202,309.051 212.535,315.551 214.5,330C 211.259,345.384 202.259,350.384 187.5,345C 179.034,337.959 177.367,329.626 182.5,320C 181.978,319.439 181.645,318.772 181.5,318C 184.074,315.254 186.741,312.754 189.5,310.5 Z"/></g>
<g><path style="opacity:0.947" fill="#070707" d="M 296.5,310.5 C 313.67,309.502 321.503,317.502 320,334.5C 315.311,346.343 306.978,350.01 295,345.5C 289.234,341.574 286.067,336.074 285.5,329C 286.806,324.884 287.972,320.717 289,316.5C 291.844,314.841 294.344,312.841 296.5,310.5 Z"/></g>
</svg>
