<?xml version="1.0" encoding="UTF-8"?>
<!DOCTYPE svg PUBLIC "-//W3C//DTD SVG 1.1//EN" "http://www.w3.org/Graphics/SVG/1.1/DTD/svg11.dtd">
<svg xmlns="http://www.w3.org/2000/svg" version="1.1" width="500px" height="500px" style="shape-rendering:geometricPrecision; text-rendering:geometricPrecision; image-rendering:optimizeQuality; fill-rule:evenodd; clip-rule:evenodd" xmlns:xlink="http://www.w3.org/1999/xlink">
<g><path style="opacity:0.9" fill="#0e0a0f" d="M 356.5,14.5 C 362.926,14.2522 368.926,15.7522 374.5,19C 375.804,19.804 376.471,20.9707 376.5,22.5C 366.692,46.0552 357.692,69.0552 349.5,91.5C 375.443,93.1794 401.443,94.0128 427.5,94C 428.127,95.7378 428.46,97.5711 428.5,99.5C 424.601,115.317 420.268,131.651 415.5,148.5C 415.182,149.647 414.516,150.481 413.5,151C 413.475,153.012 413.475,155.012 413.5,157C 412.353,159.444 411.019,161.777 409.5,164C 409.957,164.414 410.291,164.914 410.5,165.5C 407.436,174.996 404.436,184.496 401.5,194C 401.833,194.333 402.167,194.667 402.5,195C 398.761,205.954 395.095,216.954 391.5,228C 391.957,228.414 392.291,228.914 392.5,229.5C 390.003,236.292 388.003,243.292 386.5,250.5C 379.711,271.916 373.544,294.249 368,317.5C 366.312,318.325 366.145,319.325 367.5,320.5C 366.258,322.733 364.924,324.899 363.5,327C 364.022,327.561 364.355,328.228 364.5,329C 362.29,335.737 359.956,342.404 357.5,349C 358.022,349.561 358.355,350.228 358.5,351C 357.323,353.193 356.323,355.359 355.5,357.5C 355.709,358.086 356.043,358.586 356.5,359C 353.705,370.676 350.038,382.009 345.5,393C 345.957,393.414 346.291,393.914 346.5,394.5C 343.744,400.85 341.911,407.516 341,414.5C 337.405,425.195 334.238,436.028 331.5,447C 331.031,448.887 330.031,450.387 328.5,451.5C 269.599,452.831 210.766,452.831 152,451.5C 151.316,450.216 151.483,449.049 152.5,448C 150.199,443.135 148.199,438.135 146.5,433C 146.645,432.228 146.978,431.561 147.5,431C 145.983,428.796 144.65,426.462 143.5,424C 143.112,422.475 143.112,420.808 143.5,419C 140.535,411.272 137.868,403.438 135.5,395.5C 135.709,394.914 136.043,394.414 136.5,394C 132.157,383.466 128.49,372.632 125.5,361.5C 125.709,360.914 126.043,360.414 126.5,360C 125.527,357.648 124.527,355.315 123.5,353C 123.645,352.228 123.978,351.561 124.5,351C 123.484,350.481 122.818,349.647 122.5,348.5C 121.979,344.047 120.646,339.88 118.5,336C 118.957,335.586 119.291,335.086 119.5,334.5C 117.711,330.885 116.044,327.219 114.5,323.5C 114.709,322.914 115.043,322.414 115.5,322C 112.554,312.515 109.554,303.015 106.5,293.5C 106.306,291.737 106.306,289.903 106.5,288C 104.589,284.468 102.922,280.801 101.5,277C 101.063,274.783 101.063,272.449 101.5,270C 99.713,268.179 98.3797,266.012 97.5,263.5C 98.8754,261.837 98.542,260.503 96.5,259.5C 93.6322,244.479 89.6322,229.812 84.5,215.5C 84.7093,214.914 85.0426,214.414 85.5,214C 83.1997,209.145 81.1997,204.145 79.5,199C 79.1849,197.098 79.1849,195.098 79.5,193C 76.6064,184.932 73.9397,176.766 71.5,168.5C 68.2106,158.077 65.3772,146.744 63,134.5C 60.0454,125.416 57.2121,116.25 54.5,107C 54.6448,106.228 54.9781,105.561 55.5,105C 53.6375,101.851 52.9709,98.3506 53.5,94.5C 134.834,94.0183 216.167,93.3517 297.5,92.5C 307.167,91.8333 316.833,91.1667 326.5,90.5C 332.223,75.8166 338.223,61.3166 344.5,47C 344.043,46.586 343.709,46.086 343.5,45.5C 345.282,41.7884 347.282,38.2884 349.5,35C 349.043,34.586 348.709,34.086 348.5,33.5C 350.48,31.2052 351.647,28.5385 352,25.5C 352.5,24.3333 353.333,23.5 354.5,23C 354.043,22.586 353.709,22.086 353.5,21.5C 355.327,19.5128 356.327,17.1795 356.5,14.5 Z M 322.5,99.5 C 322.264,102.785 321.264,105.785 319.5,108.5C 319.709,109.086 320.043,109.586 320.5,110C 318.95,111.996 317.616,114.162 316.5,116.5C 317.55,118.712 316.717,120.046 314,120.5C 291.87,118.699 269.704,118.199 247.5,119C 240.522,120.848 233.855,123.348 227.5,126.5C 225.088,125.182 222.754,125.349 220.5,127C 206.887,128.012 193.387,127.512 180,125.5C 177.775,125.565 175.608,125.898 173.5,126.5C 166.038,124.381 158.705,122.714 151.5,121.5C 149.9,121.551 148.4,121.884 147,122.5C 146.5,122 146,121.5 145.5,121C 131.546,119.262 117.546,118.095 103.5,117.5C 89.0917,116.802 76.925,120.802 67,129.5C 63.9246,119.59 60.7579,109.423 57.5,99C 145.754,99.4945 234.087,99.6611 322.5,99.5 Z M 339.5,120.5 C 341.949,113.49 343.949,106.656 345.5,100C 364.74,99.8268 383.907,99.3268 403,98.5C 403.5,99 404,99.5 404.5,100C 410.5,100.333 416.5,100.667 422.5,101C 420.655,108.22 418.322,114.887 415.5,121C 412.242,121.212 409.076,121.712 406,122.5C 405.5,122 405,121.5 404.5,121C 382.836,120.5 361.169,120.333 339.5,120.5 Z M 335.5,129.5 C 335.741,132.034 334.741,133.7 332.5,134.5C 333.263,132.632 334.263,130.965 335.5,129.5 Z M 332.5,147.5 C 333.906,147.973 334.573,148.973 334.5,150.5C 333.094,150.027 332.427,149.027 332.5,147.5 Z M 349.5,237.5 C 351.031,238.925 350.698,239.591 348.5,239.5C 348.328,238.508 348.662,237.842 349.5,237.5 Z M 347.5,242.5 C 347.573,244.027 346.906,245.027 345.5,245.5C 345.285,243.821 345.952,242.821 347.5,242.5 Z M 345.5,245.5 C 344.833,246.833 343.833,247.833 342.5,248.5C 342.5,246.5 343.5,245.5 345.5,245.5 Z M 251.5,262.5 C 251.5,264.5 250.5,265.5 248.5,265.5C 249.167,264.167 250.167,263.167 251.5,262.5 Z M 273.5,293.5 C 273.598,295.553 272.931,297.22 271.5,298.5C 270.674,296.452 271.341,294.785 273.5,293.5 Z M 264.5,315.5 C 264.598,317.553 263.931,319.22 262.5,320.5C 262.402,318.447 263.069,316.78 264.5,315.5 Z M 320.5,340.5 C 319.702,348.286 315.702,352.619 308.5,353.5C 314.216,350.782 318.216,346.449 320.5,340.5 Z M 215.5,342.5 C 216.439,343.327 216.105,343.994 214.5,344.5C 214.328,343.508 214.662,342.842 215.5,342.5 Z M 213.5,346.5 C 211.768,350.945 208.768,353.278 204.5,353.5C 207.786,351.549 210.786,349.215 213.5,346.5 Z M 237.5,384.5 C 237.741,386.898 237.074,388.898 235.5,390.5C 235.259,388.102 235.926,386.102 237.5,384.5 Z M 232.5,398.5 C 232.332,401.051 231.332,401.718 229.5,400.5C 230.29,399.599 231.29,398.932 232.5,398.5 Z"/></g>
<g><path style="opacity:0.995" fill="#d971fb" d="M 215.5,394.5 C 215.842,395.338 216.508,395.672 217.5,395.5C 217.5,396.167 217.833,396.5 218.5,396.5C 218.842,397.338 219.508,397.672 220.5,397.5C 223.341,398.669 226.341,399.669 229.5,400.5C 231.332,401.718 232.332,401.051 232.5,398.5C 233.047,396.482 234.047,394.649 235.5,393C 235.272,392.601 234.938,392.435 234.5,392.5C 234.5,392.167 234.5,391.833 234.5,391.5C 235.167,391.5 235.5,391.167 235.5,390.5C 237.074,388.898 237.741,386.898 237.5,384.5C 238.11,383.609 238.443,382.609 238.5,381.5C 240.224,381.539 240.557,381.206 239.5,380.5C 239.557,379.391 239.89,378.391 240.5,377.5C 241.537,376.07 242.204,374.403 242.5,372.5C 243.309,370.972 243.976,369.306 244.5,367.5C 245.338,367.158 245.672,366.492 245.5,365.5C 246.404,364.791 246.737,363.791 246.5,362.5C 247.404,361.791 247.737,360.791 247.5,359.5C 248.404,358.791 248.737,357.791 248.5,356.5C 249.309,354.972 249.976,353.306 250.5,351.5C 251.338,351.158 251.672,350.492 251.5,349.5C 252.833,349.167 252.833,348.833 251.5,348.5C 252.72,346.718 253.386,344.718 253.5,342.5C 254.823,339.545 256.156,336.545 257.5,333.5C 258.677,331.321 259.677,328.987 260.5,326.5C 261.404,325.791 261.737,324.791 261.5,323.5C 262.404,322.791 262.737,321.791 262.5,320.5C 263.931,319.22 264.598,317.553 264.5,315.5C 264.5,315.167 264.5,314.833 264.5,314.5C 265.338,314.158 265.672,313.492 265.5,312.5C 266.488,309.919 267.488,307.252 268.5,304.5C 269.338,304.158 269.672,303.492 269.5,302.5C 270.833,301.833 270.833,301.167 269.5,300.5C 270.167,299.833 270.833,299.167 271.5,298.5C 272.931,297.22 273.598,295.553 273.5,293.5C 273.5,292.833 273.5,292.167 273.5,291.5C 274.537,290.07 275.204,288.403 275.5,286.5C 276.345,285.329 277.011,283.995 277.5,282.5C 278.833,282.167 278.833,281.833 277.5,281.5C 277.5,281.167 277.5,280.833 277.5,280.5C 278.338,280.158 278.672,279.492 278.5,278.5C 279.833,278.167 279.833,277.833 278.5,277.5C 278.833,276.833 279.167,276.167 279.5,275.5C 280.404,274.791 280.737,273.791 280.5,272.5C 281.338,272.158 281.672,271.492 281.5,270.5C 282.946,267.746 283.946,264.746 284.5,261.5C 285.167,261.5 285.5,261.167 285.5,260.5C 286.833,260.167 286.833,259.833 285.5,259.5C 286.11,258.609 286.443,257.609 286.5,256.5C 287.404,255.791 287.737,254.791 287.5,253.5C 289.048,253.179 289.715,252.179 289.5,250.5C 290.434,249.432 290.768,248.099 290.5,246.5C 291.338,246.158 291.672,245.492 291.5,244.5C 292.871,242.064 293.871,239.397 294.5,236.5C 295.167,236.5 295.5,236.167 295.5,235.5C 296.833,234.833 296.833,234.167 295.5,233.5C 296.11,232.609 296.443,231.609 296.5,230.5C 297.338,230.158 297.672,229.492 297.5,228.5C 298.404,227.791 298.737,226.791 298.5,225.5C 299.434,224.432 299.768,223.099 299.5,221.5C 301.224,221.539 301.557,221.206 300.5,220.5C 300.5,220.167 300.5,219.833 300.5,219.5C 301.537,218.07 302.204,216.403 302.5,214.5C 303.404,213.791 303.737,212.791 303.5,211.5C 304.167,211.5 304.5,211.167 304.5,210.5C 305.167,210.5 305.5,210.167 305.5,209.5C 306.833,209.167 306.833,208.833 305.5,208.5C 305.557,207.391 305.89,206.391 306.5,205.5C 307.338,205.158 307.672,204.492 307.5,203.5C 308.434,202.432 308.768,201.099 308.5,199.5C 309.404,198.791 309.737,197.791 309.5,196.5C 310.404,195.791 310.737,194.791 310.5,193.5C 311.345,192.329 312.011,190.995 312.5,189.5C 313.833,189.167 313.833,188.833 312.5,188.5C 313.11,187.609 313.443,186.609 313.5,185.5C 314.338,185.158 314.672,184.492 314.5,183.5C 315.404,182.791 315.737,181.791 315.5,180.5C 321.024,180.669 326.024,179.336 330.5,176.5C 331.167,176.5 331.5,176.167 331.5,175.5C 332.167,175.5 332.5,175.167 332.5,174.5C 333.167,174.5 333.5,174.167 333.5,173.5C 334.5,173.167 335.167,172.5 335.5,171.5C 336.434,170.432 336.768,169.099 336.5,167.5C 337.833,166.833 337.833,166.167 336.5,165.5C 337.787,161.732 337.787,158.065 336.5,154.5C 336.737,153.209 336.404,152.209 335.5,151.5C 335.5,150.833 335.167,150.5 334.5,150.5C 334.573,148.973 333.906,147.973 332.5,147.5C 331.071,146.766 330.071,145.599 329.5,144C 330.885,142.403 331.551,140.57 331.5,138.5C 332.434,137.432 332.768,136.099 332.5,134.5C 334.741,133.7 335.741,132.034 335.5,129.5C 341.219,127.775 347.219,126.941 353.5,127C 372.509,126.167 391.509,126.334 410.5,127.5C 383.105,232.65 355.272,337.65 327,442.5C 326.5,443 326,443.5 325.5,444C 268.845,445.736 212.178,446.903 155.5,447.5C 137.127,378.678 118.127,310.011 98.5,241.5C 89.7576,208.51 80.4243,175.844 70.5,143.5C 69.5325,140.555 69.3658,137.555 70,134.5C 74.2188,129.14 79.7188,125.973 86.5,125C 99.1667,124.333 111.833,124.333 124.5,125C 151.079,128.604 177.746,131.104 204.5,132.5C 219.85,133.553 234.517,131.053 248.5,125C 270.582,123.993 292.582,124.827 314.5,127.5C 281.667,212.499 248.834,297.499 216,382.5C 215.305,385.385 214.472,388.218 213.5,391C 213.387,392.699 214.053,393.866 215.5,394.5 Z M 335.5,129.5 C 335.741,132.034 334.741,133.7 332.5,134.5C 333.263,132.632 334.263,130.965 335.5,129.5 Z M 332.5,147.5 C 333.906,147.973 334.573,148.973 334.5,150.5C 333.094,150.027 332.427,149.027 332.5,147.5 Z M 349.5,237.5 C 351.031,238.925 350.698,239.591 348.5,239.5C 348.328,238.508 348.662,237.842 349.5,237.5 Z M 347.5,242.5 C 347.573,244.027 346.906,245.027 345.5,245.5C 345.285,243.821 345.952,242.821 347.5,242.5 Z M 345.5,245.5 C 344.833,246.833 343.833,247.833 342.5,248.5C 342.5,246.5 343.5,245.5 345.5,245.5 Z M 251.5,262.5 C 251.5,264.5 250.5,265.5 248.5,265.5C 249.167,264.167 250.167,263.167 251.5,262.5 Z M 273.5,293.5 C 273.598,295.553 272.931,297.22 271.5,298.5C 270.674,296.452 271.341,294.785 273.5,293.5 Z M 264.5,315.5 C 264.598,317.553 263.931,319.22 262.5,320.5C 262.402,318.447 263.069,316.78 264.5,315.5 Z M 320.5,340.5 C 319.702,348.286 315.702,352.619 308.5,353.5C 314.216,350.782 318.216,346.449 320.5,340.5 Z M 215.5,342.5 C 216.439,343.327 216.105,343.994 214.5,344.5C 214.328,343.508 214.662,342.842 215.5,342.5 Z M 213.5,346.5 C 211.768,350.945 208.768,353.278 204.5,353.5C 207.786,351.549 210.786,349.215 213.5,346.5 Z M 237.5,384.5 C 237.741,386.898 237.074,388.898 235.5,390.5C 235.259,388.102 235.926,386.102 237.5,384.5 Z M 232.5,398.5 C 232.332,401.051 231.332,401.718 229.5,400.5C 230.29,399.599 231.29,398.932 232.5,398.5 Z"/></g>
<g><path style="opacity:0.974" fill="#060208" d="M 246.5,169.5 C 246.5,172.5 246.5,175.5 246.5,178.5C 245.662,178.842 245.328,179.508 245.5,180.5C 244.596,181.209 244.263,182.209 244.5,183.5C 238.107,191.596 230.107,193.429 220.5,189C 210.526,177.492 211.193,166.825 222.5,157C 234.331,154.029 242.331,158.195 246.5,169.5 Z"/></g>
<g><path style="opacity:0.975" fill="#060208" d="M 166.5,183.5 C 160.424,191.435 152.758,193.268 143.5,189C 134.873,181.35 133.373,172.517 139,162.5C 147.872,153.422 156.872,153.422 166,162.5C 169.109,169.458 169.276,176.458 166.5,183.5 Z"/></g>
<g><path style="opacity:0.972" fill="#070308" d="M 348.5,224.5 C 348.216,226.415 348.549,228.081 349.5,229.5C 349.5,232.167 349.5,234.833 349.5,237.5C 348.662,237.842 348.328,238.508 348.5,239.5C 347.596,240.209 347.263,241.209 347.5,242.5C 345.952,242.821 345.285,243.821 345.5,245.5C 343.5,245.5 342.5,246.5 342.5,248.5C 341.508,248.328 340.842,248.662 340.5,249.5C 339.833,249.5 339.5,249.833 339.5,250.5C 323.111,251.801 315.611,244.135 317,227.5C 321.928,215.23 330.428,212.063 342.5,218C 344.337,220.396 346.337,222.562 348.5,224.5 Z"/></g>
<g><path style="opacity:0.97" fill="#070308" d="M 166.5,258.5 C 165.167,258.833 165.167,259.167 166.5,259.5C 164.527,260.806 162.861,262.473 161.5,264.5C 160.833,264.5 160.5,264.833 160.5,265.5C 159.508,265.328 158.842,265.662 158.5,266.5C 148.183,268.81 141.017,265.143 137,255.5C 135.566,251.594 135.233,247.594 136,243.5C 144.439,227.676 154.773,226.342 167,239.5C 169.131,245.974 168.964,252.307 166.5,258.5 Z"/></g>
<g><path style="opacity:0.976" fill="#09040a" d="M 257.5,244.5 C 257.5,247.5 257.5,250.5 257.5,253.5C 256.662,253.842 256.328,254.508 256.5,255.5C 255.36,257.045 254.36,258.712 253.5,260.5C 252.833,260.5 252.5,260.833 252.5,261.5C 251.833,261.5 251.5,261.833 251.5,262.5C 250.167,263.167 249.167,264.167 248.5,265.5C 243.242,267.475 237.909,267.308 232.5,265C 220.629,254.225 220.629,243.558 232.5,233C 237.787,229.823 243.121,229.823 248.5,233C 252.927,235.903 255.927,239.737 257.5,244.5 Z"/></g>
<g><path style="opacity:0.975" fill="#09030a" d="M 215.5,342.5 C 214.662,342.842 214.328,343.508 214.5,344.5C 214.5,344.833 214.5,345.167 214.5,345.5C 213.833,345.5 213.5,345.833 213.5,346.5C 210.786,349.215 207.786,351.549 204.5,353.5C 201.946,354.388 199.279,354.721 196.5,354.5C 196.5,353.833 196.167,353.5 195.5,353.5C 195.167,352.167 194.833,352.167 194.5,353.5C 193.609,352.89 192.609,352.557 191.5,352.5C 178.862,340.568 179.529,329.402 193.5,319C 210.342,318.007 217.675,325.84 215.5,342.5 Z"/></g>
<g><path style="opacity:0.974" fill="#08030a" d="M 320.5,332.5 C 320.5,335.167 320.5,337.833 320.5,340.5C 318.216,346.449 314.216,350.782 308.5,353.5C 307.833,353.5 307.5,353.833 307.5,354.5C 294.927,354.096 287.927,347.596 286.5,335C 289.622,319.858 298.289,315.192 312.5,321C 316.705,323.994 319.372,327.827 320.5,332.5 Z"/></g>
</svg>
