<?xml version="1.0" encoding="UTF-8"?>
<!DOCTYPE svg PUBLIC "-//W3C//DTD SVG 1.1//EN" "http://www.w3.org/Graphics/SVG/1.1/DTD/svg11.dtd">
<svg xmlns="http://www.w3.org/2000/svg" version="1.1" width="500px" height="500px" style="shape-rendering:geometricPrecision; text-rendering:geometricPrecision; image-rendering:optimizeQuality; fill-rule:evenodd; clip-rule:evenodd" xmlns:xlink="http://www.w3.org/1999/xlink">
<g><path style="opacity:0.901" fill="#83ff57" d="M 360.5,93.5 C 358.5,93.5 356.5,93.5 354.5,93.5C 354.5,92.8333 354.5,92.1667 354.5,91.5C 355.167,91.5 355.5,91.1667 355.5,90.5C 356.302,87.4262 357.302,84.4262 358.5,81.5C 359.167,81.5 359.5,81.1667 359.5,80.5C 361.5,74.1667 363.5,67.8333 365.5,61.5C 366.167,61.5 366.5,61.1667 366.5,60.5C 370.835,49.1618 375.168,37.8284 379.5,26.5C 380.833,26.1667 380.833,25.8333 379.5,25.5C 380.728,23.9902 380.728,22.4902 379.5,21C 377.134,20.5604 374.801,20.0604 372.5,19.5C 371.833,19.5 371.5,19.8333 371.5,20.5C 370.833,20.5 370.5,20.8333 370.5,21.5C 369.833,21.5 369.5,21.8333 369.5,22.5C 366.189,30.775 363.189,39.1084 360.5,47.5C 359.833,47.5 359.5,47.8333 359.5,48.5C 357.632,53.4379 355.965,58.4379 354.5,63.5C 353.833,63.5 353.5,63.8333 353.5,64.5C 350.814,71.8631 348.147,79.1964 345.5,86.5C 344.167,86.8333 344.167,87.1667 345.5,87.5C 344.89,88.391 344.557,89.391 344.5,90.5C 343.833,90.5 343.5,90.8333 343.5,91.5C 343.5,92.1667 343.5,92.8333 343.5,93.5C 341.167,93.5 338.833,93.5 336.5,93.5C 344.153,72.0432 352.486,50.8765 361.5,30C 361.167,29.6667 360.833,29.3333 360.5,29C 362.243,24.8471 364.243,20.8471 366.5,17C 366.167,16.6667 365.833,16.3333 365.5,16C 367.438,14.1282 369.771,13.2948 372.5,13.5C 378.053,14.3371 383.053,15.6704 387.5,17.5C 387.663,19.8568 387.497,22.1902 387,24.5C 382.934,34.8865 378.434,45.0531 373.5,55C 373.083,60.402 371.25,65.5687 368,70.5C 364.943,77.9568 362.443,85.6234 360.5,93.5 Z"/></g>
<g><path style="opacity:0.995" fill="#d2ff4d" d="M 372.5,19.5 C 374.801,20.0604 377.134,20.5604 379.5,21C 380.728,22.4902 380.728,23.9902 379.5,25.5C 379.5,25.8333 379.5,26.1667 379.5,26.5C 375.168,37.8284 370.835,49.1618 366.5,60.5C 365.833,60.5 365.5,60.8333 365.5,61.5C 363.5,67.8333 361.5,74.1667 359.5,80.5C 358.833,80.5 358.5,80.8333 358.5,81.5C 357.302,84.4262 356.302,87.4262 355.5,90.5C 354.833,90.5 354.5,90.8333 354.5,91.5C 354.5,92.1667 354.5,92.8333 354.5,93.5C 350.833,93.5 347.167,93.5 343.5,93.5C 343.5,92.8333 343.5,92.1667 343.5,91.5C 344.167,91.5 344.5,91.1667 344.5,90.5C 344.557,89.391 344.89,88.391 345.5,87.5C 345.5,87.1667 345.5,86.8333 345.5,86.5C 348.147,79.1964 350.814,71.8631 353.5,64.5C 354.167,64.5 354.5,64.1667 354.5,63.5C 355.965,58.4379 357.632,53.4379 359.5,48.5C 360.167,48.5 360.5,48.1667 360.5,47.5C 363.189,39.1084 366.189,30.775 369.5,22.5C 370.167,22.5 370.5,22.1667 370.5,21.5C 370.5,20.8333 370.833,20.5 371.5,20.5C 372.167,20.5 372.5,20.1667 372.5,19.5 Z"/></g>
<g><path style="opacity:0.852" fill="#13100b" d="M 336.5,93.5 C 338.833,93.5 341.167,93.5 343.5,93.5C 347.167,93.5 350.833,93.5 354.5,93.5C 356.5,93.5 358.5,93.5 360.5,93.5C 386.835,93.3334 413.169,93.5 439.5,94C 440.237,97.0644 440.571,100.064 440.5,103C 435.919,117.92 431.252,133.087 426.5,148.5C 426.709,149.086 427.043,149.586 427.5,150C 422.152,166.697 416.819,183.364 411.5,200C 411.957,200.414 412.291,200.914 412.5,201.5C 410.784,206.823 408.784,211.989 406.5,217C 406.957,217.414 407.291,217.914 407.5,218.5C 405.239,225.053 402.906,231.553 400.5,238C 400.937,240.449 400.937,242.783 400.5,245C 398.709,249.01 397.043,253.01 395.5,257C 395.833,257.333 396.167,257.667 396.5,258C 391.749,270.408 387.749,283.075 384.5,296C 384.957,296.414 385.291,296.914 385.5,297.5C 381.693,307.534 378.693,317.867 376.5,328.5C 376.182,329.647 375.516,330.481 374.5,331C 374.475,333.012 374.475,335.012 374.5,337C 370.365,348.579 366.698,360.412 363.5,372.5C 358.662,393.033 352.996,413.2 346.5,433C 347.059,433.725 347.392,434.558 347.5,435.5C 345.499,440.339 343.999,445.339 343,450.5C 341.677,452.839 340.177,455.005 338.5,457C 278.834,457.5 219.168,457.667 159.5,457.5C 159.076,453.966 158.409,450.466 157.5,447C 155.227,440.118 152.894,433.285 150.5,426.5C 150.709,425.914 151.043,425.414 151.5,425C 148.276,413.711 144.609,402.545 140.5,391.5C 139.884,389.556 139.884,387.39 140.5,385C 139.484,384.481 138.818,383.647 138.5,382.5C 134.645,366.698 129.978,351.198 124.5,336C 124.331,333.916 124.331,331.749 124.5,329.5C 121.461,319.01 117.961,308.676 114,298.5C 111.54,284.487 107.707,270.987 102.5,258C 102.833,257.667 103.167,257.333 103.5,257C 101.957,253.01 100.291,249.01 98.5,245C 98.5,243 98.5,241 98.5,239C 91.911,219.651 86.2443,199.984 81.5,180C 77.8745,169.895 74.5412,159.728 71.5,149.5C 72.1305,146.684 71.4638,144.018 69.5,141.5C 69.7093,140.914 70.0426,140.414 70.5,140C 67.0648,130.237 63.7315,120.737 60.5,111.5C 60.8333,110.833 61.1667,110.167 61.5,109.5C 59.8298,107.659 58.8298,105.492 58.5,103C 58.6705,100.319 58.8372,97.4852 59,94.5C 151.429,93.5015 243.929,93.1681 336.5,93.5 Z M 356.5,98.5 C 383.004,97.8937 409.337,98.727 435.5,101C 432.922,107.756 430.256,114.589 427.5,121.5C 423.959,122.2 420.459,122.867 417,123.5C 394.731,121.517 372.231,120.85 349.5,121.5C 352.597,114.126 354.93,106.459 356.5,98.5 Z M 333.5,98.5 C 331.03,105.944 328.364,113.611 325.5,121.5C 316.355,121.125 307.355,120.291 298.5,119C 284.5,118.333 270.5,118.333 256.5,119C 253.9,120.427 251.4,121.927 249,123.5C 248.586,123.043 248.086,122.709 247.5,122.5C 241.693,125.026 235.693,126.86 229.5,128C 223.833,128.167 218.167,128.333 212.5,128.5C 178.738,124.73 144.904,121.064 111,117.5C 105.445,117.48 99.9449,117.98 94.5,119C 87.151,121.861 80.151,125.361 73.5,129.5C 71.0628,120.581 68.3961,111.748 65.5,103C 65.0946,102.055 64.428,101.388 63.5,101C 153.352,98.7158 243.352,97.8825 333.5,98.5 Z M 184.5,156.5 C 184.56,155.957 184.893,155.624 185.5,155.5C 186.48,158.086 186.813,160.753 186.5,163.5C 185.833,161.167 185.167,158.833 184.5,156.5 Z M 280.5,156.5 C 280.842,155.662 281.508,155.328 282.5,155.5C 282.5,156.167 282.5,156.833 282.5,157.5C 281.833,157.167 281.167,156.833 280.5,156.5 Z M 327.5,178.5 C 327.715,180.179 327.048,181.179 325.5,181.5C 325.932,180.29 326.599,179.29 327.5,178.5 Z M 362.5,228.5 C 363.239,228.369 363.906,228.536 364.5,229C 363.173,244.47 363.173,259.97 364.5,275.5C 364.043,276.298 363.376,276.631 362.5,276.5C 362.5,260.5 362.5,244.5 362.5,228.5 Z"/></g>
<g><path style="opacity:0.989" fill="#fdd04d" d="M 324.5,126.5 C 290.64,216.212 256.306,305.879 221.5,395.5C 226.746,400.911 233.079,403.577 240.5,403.5C 242.666,398.839 244.833,394.173 247,389.5C 255.125,368.254 262.958,346.921 270.5,325.5C 271.167,325.5 271.5,325.167 271.5,324.5C 271.893,322.716 272.559,321.05 273.5,319.5C 274.167,319.5 274.5,319.167 274.5,318.5C 276.904,309.956 279.904,301.623 283.5,293.5C 284.833,293.167 284.833,292.833 283.5,292.5C 284.11,291.609 284.443,290.609 284.5,289.5C 285.167,289.5 285.5,289.167 285.5,288.5C 286.438,284.687 287.771,281.021 289.5,277.5C 290.833,277.167 290.833,276.833 289.5,276.5C 291.821,271.54 293.821,266.54 295.5,261.5C 296.338,261.158 296.672,260.492 296.5,259.5C 296.5,258.833 296.5,258.167 296.5,257.5C 297.167,257.5 297.5,257.167 297.5,256.5C 300.455,250.021 303.121,243.021 305.5,235.5C 306.833,235.167 306.833,234.833 305.5,234.5C 306.11,233.609 306.443,232.609 306.5,231.5C 307.338,231.158 307.672,230.492 307.5,229.5C 310.731,223.159 313.397,216.492 315.5,209.5C 316.833,209.167 316.833,208.833 315.5,208.5C 317.623,205.133 318.956,201.466 319.5,197.5C 320.167,197.5 320.5,197.167 320.5,196.5C 322.752,191.743 324.419,186.743 325.5,181.5C 327.048,181.179 327.715,180.179 327.5,178.5C 328.97,174.088 330.637,169.755 332.5,165.5C 333.833,165.167 333.833,164.833 332.5,164.5C 333.73,162.703 334.396,160.703 334.5,158.5C 335.167,158.5 335.5,158.167 335.5,157.5C 335.629,155.784 335.962,154.117 336.5,152.5C 337.167,152.5 337.5,152.167 337.5,151.5C 338.338,151.158 338.672,150.492 338.5,149.5C 339.167,149.5 339.5,149.167 339.5,148.5C 340.88,143.406 342.547,138.406 344.5,133.5C 345.167,133.5 345.5,133.167 345.5,132.5C 345.833,130.5 346.167,128.5 346.5,126.5C 371.833,126.5 397.167,126.5 422.5,126.5C 408.791,178.367 395.458,230.367 382.5,282.5C 366.993,337.706 351.993,393.04 337.5,448.5C 279.515,450.225 221.515,451.225 163.5,451.5C 163.768,449.901 163.434,448.568 162.5,447.5C 160.197,438.27 157.53,429.27 154.5,420.5C 154.784,418.585 154.451,416.919 153.5,415.5C 153.784,413.585 153.451,411.919 152.5,410.5C 152.768,408.901 152.434,407.568 151.5,406.5C 150.409,402.004 149.076,397.671 147.5,393.5C 147.167,392.167 146.833,390.833 146.5,389.5C 147.833,389.167 147.833,388.833 146.5,388.5C 145.946,385.254 144.946,382.254 143.5,379.5C 143.784,377.585 143.451,375.919 142.5,374.5C 142.768,372.901 142.434,371.568 141.5,370.5C 141.768,368.901 141.434,367.568 140.5,366.5C 139.976,364.694 139.309,363.028 138.5,361.5C 138.58,358.219 137.913,355.219 136.5,352.5C 136.167,351.167 135.833,349.833 135.5,348.5C 136.833,348.167 136.833,347.833 135.5,347.5C 134.167,343.5 132.833,339.5 131.5,335.5C 132.833,335.167 132.833,334.833 131.5,334.5C 130.833,331.833 130.167,329.167 129.5,326.5C 130.833,326.167 130.833,325.833 129.5,325.5C 129.011,324.005 128.345,322.671 127.5,321.5C 127.768,319.901 127.434,318.568 126.5,317.5C 126.795,315.265 126.461,313.265 125.5,311.5C 125.737,310.209 125.404,309.209 124.5,308.5C 123.305,304.037 121.972,299.704 120.5,295.5C 119.74,290.567 118.407,285.901 116.5,281.5C 116.768,279.901 116.434,278.568 115.5,277.5C 115.784,275.585 115.451,273.919 114.5,272.5C 112.66,266.791 110.993,261.124 109.5,255.5C 108.302,251.02 106.969,246.687 105.5,242.5C 105.768,240.901 105.434,239.568 104.5,238.5C 104.167,237.167 103.833,235.833 103.5,234.5C 104.833,234.167 104.833,233.833 103.5,233.5C 102.368,230.449 101.368,227.449 100.5,224.5C 100.768,222.901 100.434,221.568 99.5,220.5C 99.7678,218.901 99.4345,217.568 98.5,216.5C 97.1378,211.045 95.4712,205.712 93.5,200.5C 94.8333,200.167 94.8333,199.833 93.5,199.5C 92.3023,195.02 90.969,190.687 89.5,186.5C 89.7845,184.585 89.4511,182.919 88.5,181.5C 88.7678,179.901 88.4345,178.568 87.5,177.5C 85.049,167.946 82.049,158.612 78.5,149.5C 79.8333,148.833 79.8333,148.167 78.5,147.5C 78.4431,146.391 78.1098,145.391 77.5,144.5C 78.8333,144.167 78.8333,143.833 77.5,143.5C 75.4203,138.52 76.4203,134.353 80.5,131C 86.1619,126.999 92.4953,124.999 99.5,125C 126.347,124.552 153.014,126.552 179.5,131C 200.169,132.965 220.836,132.965 241.5,131C 247.21,129.155 252.877,127.155 258.5,125C 280.535,124.296 302.535,124.796 324.5,126.5 Z M 184.5,156.5 C 184.56,155.957 184.893,155.624 185.5,155.5C 186.48,158.086 186.813,160.753 186.5,163.5C 185.833,161.167 185.167,158.833 184.5,156.5 Z M 280.5,156.5 C 280.842,155.662 281.508,155.328 282.5,155.5C 282.5,156.167 282.5,156.833 282.5,157.5C 281.833,157.167 281.167,156.833 280.5,156.5 Z M 327.5,178.5 C 327.715,180.179 327.048,181.179 325.5,181.5C 325.932,180.29 326.599,179.29 327.5,178.5 Z M 362.5,228.5 C 363.239,228.369 363.906,228.536 364.5,229C 363.173,244.47 363.173,259.97 364.5,275.5C 364.043,276.298 363.376,276.631 362.5,276.5C 362.5,260.5 362.5,244.5 362.5,228.5 Z"/></g>
<g><path style="opacity:0.872" fill="#85f84c" d="M 340.5,98.5 C 328.978,128.396 317.645,158.396 306.5,188.5C 305.833,188.5 305.5,188.833 305.5,189.5C 279.137,257.573 253.137,325.906 227.5,394.5C 227.5,395.167 227.833,395.5 228.5,395.5C 229.209,396.404 230.209,396.737 231.5,396.5C 231.833,396.5 232.167,396.5 232.5,396.5C 232.5,397.167 232.833,397.5 233.5,397.5C 234.688,398.684 235.855,398.684 237,397.5C 245.189,375.799 253.355,354.132 261.5,332.5C 262.167,332.5 262.5,332.167 262.5,331.5C 265.439,322.351 268.772,313.351 272.5,304.5C 273.167,304.5 273.5,304.167 273.5,303.5C 276.32,295.034 279.32,286.701 282.5,278.5C 283.167,278.5 283.5,278.167 283.5,277.5C 306.076,218.415 328.743,159.248 351.5,100C 350.944,99.6174 350.611,99.1174 350.5,98.5C 352.104,97.713 352.771,96.3797 352.5,94.5C 354.199,94.3398 355.866,94.5065 357.5,95C 356.663,96.0113 356.33,97.1779 356.5,98.5C 354.93,106.459 352.597,114.126 349.5,121.5C 348.11,122.899 347.11,124.566 346.5,126.5C 346.167,128.5 345.833,130.5 345.5,132.5C 344.833,132.5 344.5,132.833 344.5,133.5C 342.547,138.406 340.88,143.406 339.5,148.5C 338.833,148.5 338.5,148.833 338.5,149.5C 338.672,150.492 338.338,151.158 337.5,151.5C 336.833,151.5 336.5,151.833 336.5,152.5C 335.962,154.117 335.629,155.784 335.5,157.5C 334.833,157.5 334.5,157.833 334.5,158.5C 334.396,160.703 333.73,162.703 332.5,164.5C 332.5,164.833 332.5,165.167 332.5,165.5C 330.637,169.755 328.97,174.088 327.5,178.5C 326.599,179.29 325.932,180.29 325.5,181.5C 324.419,186.743 322.752,191.743 320.5,196.5C 319.833,196.5 319.5,196.833 319.5,197.5C 318.956,201.466 317.623,205.133 315.5,208.5C 315.5,208.833 315.5,209.167 315.5,209.5C 313.397,216.492 310.731,223.159 307.5,229.5C 306.662,229.842 306.328,230.508 306.5,231.5C 306.443,232.609 306.11,233.609 305.5,234.5C 305.5,234.833 305.5,235.167 305.5,235.5C 303.121,243.021 300.455,250.021 297.5,256.5C 296.833,256.5 296.5,256.833 296.5,257.5C 296.5,258.167 296.5,258.833 296.5,259.5C 295.662,259.842 295.328,260.508 295.5,261.5C 293.821,266.54 291.821,271.54 289.5,276.5C 289.5,276.833 289.5,277.167 289.5,277.5C 287.771,281.021 286.438,284.687 285.5,288.5C 284.833,288.5 284.5,288.833 284.5,289.5C 284.443,290.609 284.11,291.609 283.5,292.5C 283.5,292.833 283.5,293.167 283.5,293.5C 279.904,301.623 276.904,309.956 274.5,318.5C 273.833,318.5 273.5,318.833 273.5,319.5C 272.559,321.05 271.893,322.716 271.5,324.5C 270.833,324.5 270.5,324.833 270.5,325.5C 262.958,346.921 255.125,368.254 247,389.5C 244.833,394.173 242.666,398.839 240.5,403.5C 233.079,403.577 226.746,400.911 221.5,395.5C 256.306,305.879 290.64,216.212 324.5,126.5C 325.038,124.883 325.371,123.216 325.5,121.5C 328.364,113.611 331.03,105.944 333.5,98.5C 335.026,97.8953 336.026,96.7286 336.5,95C 338.167,94.3333 339.833,94.3333 341.5,95C 340.663,96.0113 340.33,97.1779 340.5,98.5 Z"/></g>
<g><path style="opacity:0.965" fill="#cefd4b" d="M 340.5,98.5 C 343.833,98.5 347.167,98.5 350.5,98.5C 350.611,99.1174 350.944,99.6174 351.5,100C 328.743,159.248 306.076,218.415 283.5,277.5C 282.833,277.5 282.5,277.833 282.5,278.5C 279.32,286.701 276.32,295.034 273.5,303.5C 272.833,303.5 272.5,303.833 272.5,304.5C 268.772,313.351 265.439,322.351 262.5,331.5C 261.833,331.5 261.5,331.833 261.5,332.5C 253.355,354.132 245.189,375.799 237,397.5C 235.855,398.684 234.688,398.684 233.5,397.5C 232.833,397.5 232.5,397.167 232.5,396.5C 232.167,396.5 231.833,396.5 231.5,396.5C 230.791,395.596 229.791,395.263 228.5,395.5C 227.833,395.5 227.5,395.167 227.5,394.5C 253.137,325.906 279.137,257.573 305.5,189.5C 306.167,189.5 306.5,189.167 306.5,188.5C 317.645,158.396 328.978,128.396 340.5,98.5 Z"/></g>
<g><path style="opacity:0.959" fill="#dc73fb" d="M 184.5,156.5 C 185.167,158.833 185.833,161.167 186.5,163.5C 187.987,183.856 187.82,204.189 186,224.5C 167.057,213.361 148.557,201.694 130.5,189.5C 142.54,181.773 154.54,174.106 166.5,166.5C 172.527,163.155 178.527,159.821 184.5,156.5 Z"/></g>
<g><path style="opacity:0.953" fill="#dc73fb" d="M 280.5,156.5 C 281.167,156.833 281.833,157.167 282.5,157.5C 282.5,157.833 282.5,158.167 282.5,158.5C 281.167,158.833 281.167,159.167 282.5,159.5C 282.5,160.5 282.5,161.5 282.5,162.5C 281.167,162.833 281.167,163.167 282.5,163.5C 282.198,166.059 282.532,168.393 283.5,170.5C 283.743,188.815 283.409,206.815 282.5,224.5C 263.279,213.591 244.612,201.924 226.5,189.5C 244.007,177.652 262.007,166.652 280.5,156.5 Z"/></g>
<g><path style="opacity:0.977" fill="#dc73fb" d="M 361.5,213.5 C 361.194,216.385 361.527,219.052 362.5,221.5C 362.5,223.833 362.5,226.167 362.5,228.5C 362.5,244.5 362.5,260.5 362.5,276.5C 362.785,278.288 362.452,279.955 361.5,281.5C 342.657,270.991 324.324,259.657 306.5,247.5C 324.424,235.378 342.758,224.045 361.5,213.5 Z"/></g>
<g><path style="opacity:0.964" fill="#dc73fb" d="M 234.5,242.5 C 234.198,245.059 234.532,247.393 235.5,249.5C 236.82,269.768 236.82,290.102 235.5,310.5C 216.448,299.613 197.781,288.113 179.5,276C 197.299,263.776 215.633,252.609 234.5,242.5 Z"/></g>
<g><path style="opacity:0.971" fill="#dc73fb" d="M 215.5,312.5 C 215.198,315.059 215.532,317.393 216.5,319.5C 216.833,339.844 216.5,360.178 215.5,380.5C 200.965,371.468 186.298,362.635 171.5,354C 167.433,351.639 163.767,348.806 160.5,345.5C 178.127,333.192 196.461,322.192 215.5,312.5 Z"/></g>
<g><path style="opacity:0.969" fill="#dc73fb" d="M 317.5,333.5 C 317.198,336.059 317.532,338.393 318.5,340.5C 318.667,360.836 318.5,381.169 318,401.5C 303.146,392.635 288.313,383.801 273.5,375C 269.433,372.639 265.767,369.806 262.5,366.5C 280.169,354.175 298.503,343.175 317.5,333.5 Z"/></g>
</svg>
