<?xml version="1.0" encoding="UTF-8"?>
<!DOCTYPE svg PUBLIC "-//W3C//DTD SVG 1.1//EN" "http://www.w3.org/Graphics/SVG/1.1/DTD/svg11.dtd">
<svg xmlns="http://www.w3.org/2000/svg" version="1.1" width="500px" height="500px" style="shape-rendering:geometricPrecision; text-rendering:geometricPrecision; image-rendering:optimizeQuality; fill-rule:evenodd; clip-rule:evenodd" xmlns:xlink="http://www.w3.org/1999/xlink">
<g><path style="opacity:0.964" fill="#480fff" d="M 374.5,-0.5 C 376.5,-0.5 378.5,-0.5 380.5,-0.5C 383.606,1.26787 386.939,2.76787 390.5,4C 391.809,5.75074 391.475,7.25074 389.5,8.5C 389.709,9.08605 390.043,9.58605 390.5,10C 389,10.8333 387.833,12 387,13.5C 384.521,21.2226 381.854,28.8893 379,36.5C 378.535,37.9308 377.701,39.0975 376.5,40C 376.957,40.414 377.291,40.914 377.5,41.5C 375.886,45.8937 373.886,50.0603 371.5,54C 371.5,55.3333 371.5,56.6667 371.5,58C 367.781,65.2745 364.781,72.4411 362.5,79.5C 356.256,80.4578 349.923,80.7912 343.5,80.5C 343.196,79.8501 342.863,79.1835 342.5,78.5C 352.408,57.3701 360.741,35.5368 367.5,13C 368.328,12.0853 369.328,11.4186 370.5,11C 369.978,10.4387 369.645,9.77203 369.5,9C 371.536,5.97944 373.203,2.81277 374.5,-0.5 Z"/></g>
<g><path style="opacity:0.767" fill="#0e1111" d="M 362.5,79.5 C 390.664,80.3323 418.997,80.8323 447.5,81C 448.097,82.0617 448.43,83.2284 448.5,84.5C 447.175,90.1339 446.008,95.8005 445,101.5C 441.12,116.604 436.62,131.437 431.5,146C 431.063,148.217 431.063,150.551 431.5,153C 430.672,153.915 429.672,154.581 428.5,155C 428.957,155.414 429.291,155.914 429.5,156.5C 427.685,161.755 425.685,166.922 423.5,172C 423.957,172.414 424.291,172.914 424.5,173.5C 422.686,179.413 420.686,185.246 418.5,191C 418.957,191.414 419.291,191.914 419.5,192.5C 417.561,198.044 415.561,203.544 413.5,209C 414.668,210.406 414.335,211.572 412.5,212.5C 412.833,213.167 413.167,213.833 413.5,214.5C 412.054,218.816 410.387,222.983 408.5,227C 408.957,227.414 409.291,227.914 409.5,228.5C 408.5,229.333 407.5,230.167 406.5,231C 406.663,233.211 406.663,235.378 406.5,237.5C 401.224,254.144 396.557,270.644 392.5,287C 392.245,288.326 391.578,289.326 390.5,290C 390.754,292.144 390.754,294.144 390.5,296C 389.711,297.626 388.711,299.126 387.5,300.5C 387.833,301.167 388.167,301.833 388.5,302.5C 386.561,307.374 384.561,312.207 382.5,317C 383.022,317.561 383.355,318.228 383.5,319C 381.79,324.88 379.79,330.546 377.5,336C 377.623,338.211 377.623,340.378 377.5,342.5C 376.14,346.513 374.473,350.346 372.5,354C 373.434,357.272 372.767,360.272 370.5,363C 371.022,363.561 371.355,364.228 371.5,365C 367.756,372.813 365.423,380.813 364.5,389C 360.243,400.811 356.576,412.811 353.5,425C 354.022,425.561 354.355,426.228 354.5,427C 353.399,429.216 352.066,431.216 350.5,433C 351.69,438.381 350.357,443.048 346.5,447C 347.059,447.725 347.392,448.558 347.5,449.5C 345.737,452.305 344.07,455.138 342.5,458C 280.495,458.739 218.495,458.573 156.5,457.5C 153.549,444.886 149.882,432.886 145.5,421.5C 145.709,420.914 146.043,420.414 146.5,420C 144.169,413.035 141.836,406.035 139.5,399C 139.645,398.228 139.978,397.561 140.5,397C 138.877,393.951 137.377,390.784 136,387.5C 135.316,386.216 135.483,385.049 136.5,384C 134.074,376.058 131.24,368.224 128,360.5C 127.28,358.888 127.446,357.388 128.5,356C 126.132,351.078 124.132,345.911 122.5,340.5C 122.306,338.737 122.306,336.903 122.5,335C 120.308,329.426 118.308,323.759 116.5,318C 116.645,317.228 116.978,316.561 117.5,316C 116.107,314.829 115.273,313.329 115,311.5C 114.374,305.619 112.541,300.286 109.5,295.5C 108.884,293.556 108.884,291.39 109.5,289C 107.317,283.968 105.317,278.801 103.5,273.5C 103.833,272.833 104.167,272.167 104.5,271.5C 101.21,260.099 97.5434,248.766 93.5,237.5C 93.6938,235.597 93.6938,233.763 93.5,232C 90.6537,231.121 89.987,229.454 91.5,227C 89.4644,223.177 87.7978,219.177 86.5,215C 85.7607,213.235 85.7607,211.235 86.5,209C 84.395,203.734 82.395,198.401 80.5,193C 80.6448,192.228 80.9781,191.561 81.5,191C 79.2537,185.799 77.2537,180.466 75.5,175C 75.9574,174.586 76.2907,174.086 76.5,173.5C 74.3454,167.878 72.3454,162.211 70.5,156.5C 70.7093,155.914 71.0426,155.414 71.5,155C 70.3279,154.581 69.3279,153.915 68.5,153C 68.9369,150.551 68.9369,148.217 68.5,146C 63.3796,131.437 58.8796,116.604 55,101.5C 53.3406,94.8821 52.3406,88.2155 52,81.5C 149.096,80.5014 246.263,80.1681 343.5,80.5C 349.923,80.7912 356.256,80.4578 362.5,79.5 Z M 350.5,109.5 C 351.869,108.032 353.036,106.365 354,104.5C 355.44,98.4612 356.94,92.4612 358.5,86.5C 378.743,86.8265 398.909,86.4932 419,85.5C 419.5,86 420,86.5 420.5,87C 427.833,87.3333 435.167,87.6667 442.5,88C 439.701,94.5694 437.368,101.736 435.5,109.5C 433.5,109.833 431.5,110.167 429.5,110.5C 403.178,109.555 376.845,109.222 350.5,109.5 Z M 339.5,86.5 C 337.304,94.7746 334.637,102.441 331.5,109.5C 307.289,108.226 283.123,107.226 259,106.5C 244.206,113.728 228.54,116.728 212,115.5C 200.817,115.361 189.65,114.861 178.5,114C 162.604,111.082 146.271,109.082 129.5,108C 128.975,107.308 128.308,106.808 127.5,106.5C 124.731,107.296 122.064,107.629 119.5,107.5C 118.692,107.192 118.025,106.692 117.5,106C 104.474,104.366 92.141,105.699 80.5,110C 75.8398,111.995 71.5065,114.495 67.5,117.5C 64.1789,107.25 60.8455,97.417 57.5,88C 151.496,86.7504 245.496,86.2504 339.5,86.5 Z"/></g>
<g><path style="opacity:0.99" fill="#410ffd" d="M 341.5,85.5 C 347.358,85.1778 353.025,85.5111 358.5,86.5C 356.94,92.4612 355.44,98.4612 354,104.5C 353.036,106.365 351.869,108.032 350.5,109.5C 349.4,110.605 348.733,111.938 348.5,113.5C 347.167,113.833 347.167,114.167 348.5,114.5C 347.89,115.391 347.557,116.391 347.5,117.5C 346.833,117.5 346.5,117.833 346.5,118.5C 346.443,119.609 346.11,120.609 345.5,121.5C 345.5,121.833 345.5,122.167 345.5,122.5C 344.559,124.05 343.893,125.716 343.5,127.5C 342.833,127.5 342.5,127.833 342.5,128.5C 342.5,129.167 342.5,129.833 342.5,130.5C 341.662,130.842 341.328,131.508 341.5,132.5C 339.967,136.433 338.633,140.433 337.5,144.5C 336.833,144.5 336.5,144.833 336.5,145.5C 335.833,147.167 335.167,148.833 334.5,150.5C 333.833,150.5 333.5,150.833 333.5,151.5C 333.5,152.5 333.5,153.5 333.5,154.5C 332.833,154.5 332.5,154.833 332.5,155.5C 331.317,158.381 330.317,161.381 329.5,164.5C 328.833,164.5 328.5,164.833 328.5,165.5C 328.5,166.167 328.5,166.833 328.5,167.5C 327.833,167.5 327.5,167.833 327.5,168.5C 326.302,171.426 325.302,174.426 324.5,177.5C 323.833,177.5 323.5,177.833 323.5,178.5C 322.973,181.323 321.973,184.323 320.5,187.5C 319.833,187.5 319.5,187.833 319.5,188.5C 319.5,189.167 319.5,189.833 319.5,190.5C 318.167,190.833 318.167,191.167 319.5,191.5C 317.786,194.299 316.453,197.299 315.5,200.5C 314.833,200.5 314.5,200.833 314.5,201.5C 314.5,202.5 314.5,203.5 314.5,204.5C 313.833,204.5 313.5,204.833 313.5,205.5C 312.833,207.167 312.167,208.833 311.5,210.5C 310.833,210.5 310.5,210.833 310.5,211.5C 310.5,212.5 310.5,213.5 310.5,214.5C 309.833,214.5 309.5,214.833 309.5,215.5C 308.546,218.706 307.213,221.706 305.5,224.5C 305.5,224.833 305.5,225.167 305.5,225.5C 305.5,226.167 305.5,226.833 305.5,227.5C 304.833,227.5 304.5,227.833 304.5,228.5C 304.204,230.403 303.537,232.07 302.5,233.5C 301.167,233.833 301.167,234.167 302.5,234.5C 301.89,235.391 301.557,236.391 301.5,237.5C 300.833,237.5 300.5,237.833 300.5,238.5C 299.176,242.486 297.843,246.486 296.5,250.5C 295.833,250.5 295.5,250.833 295.5,251.5C 294.345,254.457 293.345,257.457 292.5,260.5C 291.833,260.5 291.5,260.833 291.5,261.5C 291.5,262.5 291.5,263.5 291.5,264.5C 290.833,264.5 290.5,264.833 290.5,265.5C 290.167,266.167 289.833,266.833 289.5,267.5C 289.5,267.833 289.5,268.167 289.5,268.5C 289.672,269.492 289.338,270.158 288.5,270.5C 287.833,270.5 287.5,270.833 287.5,271.5C 287.5,272.5 287.5,273.5 287.5,274.5C 286.833,274.5 286.5,274.833 286.5,275.5C 284.971,279.421 283.637,283.421 282.5,287.5C 281.833,287.5 281.5,287.833 281.5,288.5C 279.426,294.972 277.092,301.305 274.5,307.5C 273.833,307.5 273.5,307.833 273.5,308.5C 273.5,309.167 273.5,309.833 273.5,310.5C 272.167,310.833 272.167,311.167 273.5,311.5C 271.59,314.555 270.257,317.889 269.5,321.5C 268.833,321.5 268.5,321.833 268.5,322.5C 268.5,323.167 268.5,323.833 268.5,324.5C 267.833,324.5 267.5,324.833 267.5,325.5C 266.216,328.402 265.216,331.402 264.5,334.5C 263.833,334.5 263.5,334.833 263.5,335.5C 262.655,338.543 261.655,341.543 260.5,344.5C 259.833,344.5 259.5,344.833 259.5,345.5C 259.5,346.167 259.5,346.833 259.5,347.5C 258.833,347.5 258.5,347.833 258.5,348.5C 257.145,352.895 255.811,357.228 254.5,361.5C 253.833,361.5 253.5,361.833 253.5,362.5C 252.833,364.167 252.167,365.833 251.5,367.5C 250.833,367.5 250.5,367.833 250.5,368.5C 250.5,369.5 250.5,370.5 250.5,371.5C 249.833,371.5 249.5,371.833 249.5,372.5C 248.304,375.421 247.304,378.421 246.5,381.5C 245.833,381.5 245.5,381.833 245.5,382.5C 245.5,383.167 245.5,383.833 245.5,384.5C 244.833,384.5 244.5,384.833 244.5,385.5C 243.508,391.467 240.841,396.467 236.5,400.5C 232.455,398.428 228.455,396.262 224.5,394C 223.978,393.439 223.645,392.772 223.5,392C 226.122,385.971 228.455,379.804 230.5,373.5C 231.167,373.5 231.5,373.167 231.5,372.5C 231.5,371.833 231.5,371.167 231.5,370.5C 232.167,370.5 232.5,370.167 232.5,369.5C 232.971,367.421 233.637,365.421 234.5,363.5C 235.167,363.5 235.5,363.167 235.5,362.5C 236.833,358.5 238.167,354.5 239.5,350.5C 240.833,350.167 240.833,349.833 239.5,349.5C 240.11,348.609 240.443,347.609 240.5,346.5C 241.167,346.5 241.5,346.167 241.5,345.5C 242.5,342.833 243.5,340.167 244.5,337.5C 245.338,337.158 245.672,336.492 245.5,335.5C 245.897,332.554 246.897,329.887 248.5,327.5C 249.167,327.5 249.5,327.167 249.5,326.5C 249.629,324.784 249.962,323.117 250.5,321.5C 251.167,321.5 251.5,321.167 251.5,320.5C 252.167,318.167 252.833,315.833 253.5,313.5C 254.167,313.5 254.5,313.167 254.5,312.5C 254.5,312.167 254.5,311.833 254.5,311.5C 255.167,311.5 255.5,311.167 255.5,310.5C 255.5,309.5 255.5,308.5 255.5,307.5C 256.167,307.5 256.5,307.167 256.5,306.5C 258.528,300.396 260.861,294.396 263.5,288.5C 264.167,288.5 264.5,288.167 264.5,287.5C 266.271,280.626 268.605,273.96 271.5,267.5C 272.167,267.5 272.5,267.167 272.5,266.5C 276.638,254.751 280.971,243.085 285.5,231.5C 286.833,231.167 286.833,230.833 285.5,230.5C 285.833,229.833 286.167,229.167 286.5,228.5C 287.167,228.5 287.5,228.167 287.5,227.5C 287.5,226.5 287.5,225.5 287.5,224.5C 288.167,224.5 288.5,224.167 288.5,223.5C 289.559,220.382 290.892,217.382 292.5,214.5C 292.5,214.167 292.5,213.833 292.5,213.5C 292.971,211.421 293.637,209.421 294.5,207.5C 295.167,207.5 295.5,207.167 295.5,206.5C 295.5,206.167 295.5,205.833 295.5,205.5C 296.167,205.5 296.5,205.167 296.5,204.5C 297.678,200.121 299.012,195.788 300.5,191.5C 301.167,191.5 301.5,191.167 301.5,190.5C 302.108,187.673 303.108,185.007 304.5,182.5C 305.833,181.833 305.833,181.167 304.5,180.5C 304.833,179.833 305.167,179.167 305.5,178.5C 306.167,178.5 306.5,178.167 306.5,177.5C 306.5,176.5 306.5,175.5 306.5,174.5C 307.167,174.5 307.5,174.167 307.5,173.5C 308.931,172.22 309.598,170.553 309.5,168.5C 310.167,168.5 310.5,168.167 310.5,167.5C 311.632,163.437 312.965,159.437 314.5,155.5C 315.167,155.5 315.5,155.167 315.5,154.5C 315.5,153.5 315.5,152.5 315.5,151.5C 316.167,151.5 316.5,151.167 316.5,150.5C 317.537,149.07 318.204,147.403 318.5,145.5C 319.167,145.5 319.5,145.167 319.5,144.5C 320.633,140.433 321.967,136.433 323.5,132.5C 324.167,132.5 324.5,132.167 324.5,131.5C 324.928,128.215 325.928,125.215 327.5,122.5C 328.167,122.5 328.5,122.167 328.5,121.5C 328.5,120.5 328.5,119.5 328.5,118.5C 329.167,118.5 329.5,118.167 329.5,117.5C 329.833,116.833 330.167,116.167 330.5,115.5C 330.517,113.435 330.85,111.435 331.5,109.5C 334.637,102.441 337.304,94.7746 339.5,86.5C 340.492,86.6716 341.158,86.3382 341.5,85.5 Z"/></g>
<g><path style="opacity:0.999" fill="#73fdfd" d="M 146.5,115.5 C 146.833,116.833 147.167,116.833 147.5,115.5C 156.904,116.675 166.237,118.175 175.5,120C 196.496,121.889 217.496,121.889 238.5,120C 245.426,118.596 252.093,116.263 258.5,113C 282.189,112.413 305.856,112.913 329.5,114.5C 329.5,115.167 329.833,115.5 330.5,115.5C 330.167,116.167 329.833,116.833 329.5,117.5C 328.833,117.5 328.5,117.833 328.5,118.5C 328.5,119.5 328.5,120.5 328.5,121.5C 327.833,121.5 327.5,121.833 327.5,122.5C 325.928,125.215 324.928,128.215 324.5,131.5C 323.833,131.5 323.5,131.833 323.5,132.5C 321.967,136.433 320.633,140.433 319.5,144.5C 318.833,144.5 318.5,144.833 318.5,145.5C 318.204,147.403 317.537,149.07 316.5,150.5C 315.833,150.5 315.5,150.833 315.5,151.5C 315.5,152.5 315.5,153.5 315.5,154.5C 314.833,154.5 314.5,154.833 314.5,155.5C 312.965,159.437 311.632,163.437 310.5,167.5C 309.833,167.5 309.5,167.833 309.5,168.5C 309.598,170.553 308.931,172.22 307.5,173.5C 306.833,173.5 306.5,173.833 306.5,174.5C 306.5,175.5 306.5,176.5 306.5,177.5C 305.833,177.5 305.5,177.833 305.5,178.5C 305.167,179.167 304.833,179.833 304.5,180.5C 304.5,181.167 304.5,181.833 304.5,182.5C 303.108,185.007 302.108,187.673 301.5,190.5C 300.833,190.5 300.5,190.833 300.5,191.5C 299.012,195.788 297.678,200.121 296.5,204.5C 295.833,204.5 295.5,204.833 295.5,205.5C 295.5,205.833 295.5,206.167 295.5,206.5C 294.833,206.5 294.5,206.833 294.5,207.5C 293.637,209.421 292.971,211.421 292.5,213.5C 291.167,213.833 291.167,214.167 292.5,214.5C 290.892,217.382 289.559,220.382 288.5,223.5C 287.833,223.5 287.5,223.833 287.5,224.5C 287.5,225.5 287.5,226.5 287.5,227.5C 286.833,227.5 286.5,227.833 286.5,228.5C 286.167,229.167 285.833,229.833 285.5,230.5C 285.5,230.833 285.5,231.167 285.5,231.5C 280.971,243.085 276.638,254.751 272.5,266.5C 271.833,266.5 271.5,266.833 271.5,267.5C 268.605,273.96 266.271,280.626 264.5,287.5C 263.833,287.5 263.5,287.833 263.5,288.5C 260.861,294.396 258.528,300.396 256.5,306.5C 255.833,306.5 255.5,306.833 255.5,307.5C 255.5,308.5 255.5,309.5 255.5,310.5C 254.833,310.5 254.5,310.833 254.5,311.5C 254.5,311.833 254.5,312.167 254.5,312.5C 253.833,312.5 253.5,312.833 253.5,313.5C 252.833,315.833 252.167,318.167 251.5,320.5C 250.833,320.5 250.5,320.833 250.5,321.5C 249.962,323.117 249.629,324.784 249.5,326.5C 248.833,326.5 248.5,326.833 248.5,327.5C 246.897,329.887 245.897,332.554 245.5,335.5C 244.662,335.842 244.328,336.508 244.5,337.5C 243.5,340.167 242.5,342.833 241.5,345.5C 240.833,345.5 240.5,345.833 240.5,346.5C 240.443,347.609 240.11,348.609 239.5,349.5C 239.5,349.833 239.5,350.167 239.5,350.5C 238.167,354.5 236.833,358.5 235.5,362.5C 234.833,362.5 234.5,362.833 234.5,363.5C 233.637,365.421 232.971,367.421 232.5,369.5C 231.833,369.5 231.5,369.833 231.5,370.5C 231.5,371.167 231.5,371.833 231.5,372.5C 230.833,372.5 230.5,372.833 230.5,373.5C 228.455,379.804 226.122,385.971 223.5,392C 223.645,392.772 223.978,393.439 224.5,394C 228.455,396.262 232.455,398.428 236.5,400.5C 240.841,396.467 243.508,391.467 244.5,385.5C 245.167,385.5 245.5,385.167 245.5,384.5C 245.5,383.833 245.5,383.167 245.5,382.5C 246.167,382.5 246.5,382.167 246.5,381.5C 247.304,378.421 248.304,375.421 249.5,372.5C 250.167,372.5 250.5,372.167 250.5,371.5C 250.5,370.5 250.5,369.5 250.5,368.5C 251.167,368.5 251.5,368.167 251.5,367.5C 252.167,365.833 252.833,364.167 253.5,362.5C 254.167,362.5 254.5,362.167 254.5,361.5C 255.811,357.228 257.145,352.895 258.5,348.5C 259.167,348.5 259.5,348.167 259.5,347.5C 259.5,346.833 259.5,346.167 259.5,345.5C 260.167,345.5 260.5,345.167 260.5,344.5C 261.655,341.543 262.655,338.543 263.5,335.5C 264.167,335.5 264.5,335.167 264.5,334.5C 265.216,331.402 266.216,328.402 267.5,325.5C 268.167,325.5 268.5,325.167 268.5,324.5C 268.5,323.833 268.5,323.167 268.5,322.5C 269.167,322.5 269.5,322.167 269.5,321.5C 270.257,317.889 271.59,314.555 273.5,311.5C 273.5,311.167 273.5,310.833 273.5,310.5C 273.5,309.833 273.5,309.167 273.5,308.5C 274.167,308.5 274.5,308.167 274.5,307.5C 277.092,301.305 279.426,294.972 281.5,288.5C 282.167,288.5 282.5,288.167 282.5,287.5C 283.637,283.421 284.971,279.421 286.5,275.5C 287.167,275.5 287.5,275.167 287.5,274.5C 287.5,273.5 287.5,272.5 287.5,271.5C 288.167,271.5 288.5,271.167 288.5,270.5C 289.338,270.158 289.672,269.492 289.5,268.5C 290.833,268.167 290.833,267.833 289.5,267.5C 289.833,266.833 290.167,266.167 290.5,265.5C 291.167,265.5 291.5,265.167 291.5,264.5C 291.5,263.5 291.5,262.5 291.5,261.5C 292.167,261.5 292.5,261.167 292.5,260.5C 293.345,257.457 294.345,254.457 295.5,251.5C 296.167,251.5 296.5,251.167 296.5,250.5C 297.843,246.486 299.176,242.486 300.5,238.5C 301.167,238.5 301.5,238.167 301.5,237.5C 301.557,236.391 301.89,235.391 302.5,234.5C 302.5,234.167 302.5,233.833 302.5,233.5C 303.537,232.07 304.204,230.403 304.5,228.5C 305.167,228.5 305.5,228.167 305.5,227.5C 305.5,226.833 305.5,226.167 305.5,225.5C 306.833,225.167 306.833,224.833 305.5,224.5C 307.213,221.706 308.546,218.706 309.5,215.5C 310.167,215.5 310.5,215.167 310.5,214.5C 310.5,213.5 310.5,212.5 310.5,211.5C 311.167,211.5 311.5,211.167 311.5,210.5C 312.167,208.833 312.833,207.167 313.5,205.5C 314.167,205.5 314.5,205.167 314.5,204.5C 314.5,203.5 314.5,202.5 314.5,201.5C 315.167,201.5 315.5,201.167 315.5,200.5C 316.453,197.299 317.786,194.299 319.5,191.5C 319.5,191.167 319.5,190.833 319.5,190.5C 319.5,189.833 319.5,189.167 319.5,188.5C 320.167,188.5 320.5,188.167 320.5,187.5C 321.973,184.323 322.973,181.323 323.5,178.5C 324.167,178.5 324.5,178.167 324.5,177.5C 325.302,174.426 326.302,171.426 327.5,168.5C 328.167,168.5 328.5,168.167 328.5,167.5C 328.5,166.833 328.5,166.167 328.5,165.5C 329.167,165.5 329.5,165.167 329.5,164.5C 330.317,161.381 331.317,158.381 332.5,155.5C 333.167,155.5 333.5,155.167 333.5,154.5C 333.5,153.5 333.5,152.5 333.5,151.5C 334.167,151.5 334.5,151.167 334.5,150.5C 335.167,148.833 335.833,147.167 336.5,145.5C 337.167,145.5 337.5,145.167 337.5,144.5C 338.633,140.433 339.967,136.433 341.5,132.5C 342.338,132.158 342.672,131.492 342.5,130.5C 342.5,129.833 342.5,129.167 342.5,128.5C 343.167,128.5 343.5,128.167 343.5,127.5C 343.893,125.716 344.559,124.05 345.5,122.5C 346.833,122.167 346.833,121.833 345.5,121.5C 346.11,120.609 346.443,119.609 346.5,118.5C 347.167,118.5 347.5,118.167 347.5,117.5C 347.557,116.391 347.89,115.391 348.5,114.5C 374.833,114.5 401.167,114.5 427.5,114.5C 427.5,115.167 427.833,115.5 428.5,115.5C 427.677,118.461 427.01,121.461 426.5,124.5C 425.167,124.833 425.167,125.167 426.5,125.5C 423.723,132.941 421.723,140.608 420.5,148.5C 418.565,153.571 417.232,158.905 416.5,164.5C 415.566,165.568 415.232,166.901 415.5,168.5C 413.421,173.192 412.088,178.192 411.5,183.5C 410.167,183.833 410.167,184.167 411.5,184.5C 409.427,188.611 408.093,192.945 407.5,197.5C 406.539,199.265 406.205,201.265 406.5,203.5C 402.964,212.464 400.298,221.797 398.5,231.5C 397.167,231.833 397.167,232.167 398.5,232.5C 397.766,233.708 397.433,235.041 397.5,236.5C 395.722,241.272 394.389,246.272 393.5,251.5C 392.566,252.568 392.232,253.901 392.5,255.5C 390.716,260.298 389.383,265.298 388.5,270.5C 386.421,275.192 385.088,280.192 384.5,285.5C 381.616,296.71 378.283,307.876 374.5,319C 374.966,320.299 374.966,321.799 374.5,323.5C 373.167,323.833 373.167,324.167 374.5,324.5C 372.707,328.666 371.374,333 370.5,337.5C 369.167,337.833 369.167,338.167 370.5,338.5C 366.905,347.542 364.239,356.875 362.5,366.5C 361.167,366.833 361.167,367.167 362.5,367.5C 362.443,368.609 362.11,369.609 361.5,370.5C 360.167,370.833 360.167,371.167 361.5,371.5C 359.918,375.728 358.585,380.061 357.5,384.5C 356.167,384.833 356.167,385.167 357.5,385.5C 357.167,386.833 356.833,388.167 356.5,389.5C 355.549,390.919 355.216,392.585 355.5,394.5C 354.331,397.341 353.331,400.341 352.5,403.5C 351.549,404.919 351.216,406.585 351.5,408.5C 350.549,409.919 350.216,411.585 350.5,413.5C 349.463,414.93 348.796,416.597 348.5,418.5C 346.544,424.312 344.877,430.312 343.5,436.5C 342.167,436.833 342.167,437.167 343.5,437.5C 342.766,438.708 342.433,440.041 342.5,441.5C 341.566,442.568 341.232,443.901 341.5,445.5C 340.751,446.531 340.085,447.698 339.5,449C 280.171,450.431 220.838,451.598 161.5,452.5C 161.5,451.833 161.167,451.5 160.5,451.5C 159.871,448.603 158.871,445.936 157.5,443.5C 155.245,431.855 152.245,420.522 148.5,409.5C 147.523,404.952 146.189,400.285 144.5,395.5C 144.768,393.901 144.434,392.568 143.5,391.5C 143.443,390.391 143.11,389.391 142.5,388.5C 143.833,388.167 143.833,387.833 142.5,387.5C 141.383,382.319 140.049,377.319 138.5,372.5C 136.507,366.158 134.84,359.825 133.5,353.5C 130.663,344.474 127.997,335.474 125.5,326.5C 125.443,325.391 125.11,324.391 124.5,323.5C 125.833,323.167 125.833,322.833 124.5,322.5C 122.703,312.803 120.036,303.47 116.5,294.5C 115.284,287.966 113.617,281.632 111.5,275.5C 111.768,273.901 111.434,272.568 110.5,271.5C 109.105,267.41 107.772,263.41 106.5,259.5C 106.08,254.471 104.746,249.805 102.5,245.5C 102.567,244.041 102.234,242.708 101.5,241.5C 102.833,241.167 102.833,240.833 101.5,240.5C 100.456,235.645 99.1231,230.978 97.5,226.5C 97.7678,224.901 97.4345,223.568 96.5,222.5C 95.3391,217.696 94.0058,213.029 92.5,208.5C 92.7678,206.901 92.4345,205.568 91.5,204.5C 90.5652,200.03 89.2319,195.697 87.5,191.5C 88.8333,191.167 88.8333,190.833 87.5,190.5C 86.6123,185.927 85.2789,181.594 83.5,177.5C 81.5879,168.166 78.9212,159.166 75.5,150.5C 74.4399,144.251 72.7732,138.251 70.5,132.5C 70.7678,130.901 70.4345,129.568 69.5,128.5C 69.67,127.178 69.3366,126.011 68.5,125C 78.8311,114.284 91.4977,110.117 106.5,112.5C 119.878,113.019 133.212,114.019 146.5,115.5 Z"/></g>
<g><path style="opacity:1" fill="#400afe" d="M 172.5,185.5 C 172.198,188.059 172.532,190.393 173.5,192.5C 172.908,195.127 172.575,197.794 172.5,200.5C 169.564,209.102 163.898,215.102 155.5,218.5C 142.276,220.889 132.276,216.223 125.5,204.5C 121.753,191.995 124.087,180.829 132.5,171C 137.705,166.393 143.705,164.727 150.5,166C 162.158,167.834 169.491,174.334 172.5,185.5 Z"/></g>
<g><path style="opacity:0.999" fill="#400afe" d="M 255.5,165.5 C 267.529,167.199 275.196,173.865 278.5,185.5C 281.487,201.197 275.821,212.197 261.5,218.5C 255.653,220.148 249.986,219.815 244.5,217.5C 239.167,214.167 234.833,209.833 231.5,204.5C 227.125,191.326 229.792,179.993 239.5,170.5C 244.055,166.567 249.388,164.9 255.5,165.5 Z"/></g>
<g><path style="opacity:1" fill="#400cfe" d="M 365.5,205.5 C 366.002,209.775 366.669,214.275 367.5,219C 367.419,220.924 367.086,222.757 366.5,224.5C 361.837,239.602 351.504,245.769 335.5,243C 328.697,239.693 323.364,234.86 319.5,228.5C 319.737,227.209 319.404,226.209 318.5,225.5C 317.108,218.752 317.441,212.085 319.5,205.5C 327.672,189.789 340.005,185.956 356.5,194C 360.174,197.45 363.174,201.283 365.5,205.5 Z"/></g>
<g><path style="opacity:1" fill="#400bfe" d="M 227.5,242.5 C 232.708,260.074 227.041,272.574 210.5,280C 197.163,281.581 187.329,276.414 181,264.5C 179.925,260.23 179.425,255.897 179.5,251.5C 180.451,250.081 180.784,248.415 180.5,246.5C 187.017,227.43 199.683,222.263 218.5,231C 222.538,234.183 225.538,238.016 227.5,242.5 Z"/></g>
<g><path style="opacity:0.999" fill="#400cfe" d="M 331.5,314.5 C 331.833,315.833 332.167,315.833 332.5,314.5C 338.681,317.013 343.681,321.013 347.5,326.5C 348.656,328.824 349.656,331.157 350.5,333.5C 350.279,336.279 350.612,338.946 351.5,341.5C 350.532,343.607 350.198,345.941 350.5,348.5C 342.043,367.448 328.71,371.948 310.5,362C 303.532,355.25 300.198,347.084 300.5,337.5C 301.88,329.728 305.546,323.395 311.5,318.5C 317.325,313.508 323.992,312.175 331.5,314.5 Z"/></g>
<g><path style="opacity:1" fill="#400cff" d="M 175.5,340.5 C 182.453,325.555 193.787,321.388 209.5,328C 218.682,333.525 223.349,341.692 223.5,352.5C 221.964,366.531 214.464,375.531 201,379.5C 178.008,376.215 169.508,363.215 175.5,340.5 Z"/></g>
</svg>
