<?xml version="1.0" encoding="UTF-8"?>
<!DOCTYPE svg PUBLIC "-//W3C//DTD SVG 1.1//EN" "http://www.w3.org/Graphics/SVG/1.1/DTD/svg11.dtd">
<svg xmlns="http://www.w3.org/2000/svg" version="1.1" width="500px" height="500px" style="shape-rendering:geometricPrecision; text-rendering:geometricPrecision; image-rendering:optimizeQuality; fill-rule:evenodd; clip-rule:evenodd" xmlns:xlink="http://www.w3.org/1999/xlink">
<g><path style="opacity:0.953" fill="#ff830a" d="M 358.5,88.5 C 353.5,88.5 348.5,88.5 343.5,88.5C 343.196,87.8501 342.863,87.1835 342.5,86.5C 351.795,61.7897 361.461,37.2897 371.5,13C 376.552,13.6786 381.552,14.8452 386.5,16.5C 377.713,40.7366 368.379,64.7366 358.5,88.5 Z"/></g>
<g><path style="opacity:0.953" fill="#0a0d08" d="M 343.5,88.5 C 348.5,88.5 353.5,88.5 358.5,88.5C 385.502,88.3334 412.502,88.5 439.5,89C 440.081,89.8926 440.415,90.8926 440.5,92C 437.235,106.527 433.568,120.527 429.5,134C 405.932,213.381 383.432,293.548 362,374.5C 361.682,376.061 360.849,377.228 359.5,378C 360.059,378.725 360.392,379.558 360.5,380.5C 354.625,399.368 348.958,418.701 343.5,438.5C 342.5,439.333 341.5,440.167 340.5,441C 315.833,441.167 291.167,441.333 266.5,441.5C 233.475,441.721 200.475,441.054 167.5,439.5C 167.709,438.914 168.043,438.414 168.5,438C 167.484,437.481 166.818,436.647 166.5,435.5C 141.834,348.835 117.168,262.168 92.5,175.5C 86.0558,152.431 79.5558,129.764 73,107.5C 71.3423,101.554 70.3423,95.5539 70,89.5C 161.096,88.5015 252.263,88.1681 343.5,88.5 Z M 340.5,93.5 C 372.037,92.017 403.704,92.517 435.5,95C 432.636,101.606 430.303,108.44 428.5,115.5C 402.199,115.632 375.866,115.632 349.5,115.5C 350.207,113.082 351.207,110.748 352.5,108.5C 352.392,107.558 352.059,106.725 351.5,106C 352.428,105.612 353.095,104.945 353.5,104C 354.269,100.757 355.269,97.5905 356.5,94.5C 351.208,93.5052 345.875,93.1718 340.5,93.5 Z M 265.5,92.5 C 283.167,92.5 300.833,92.5 318.5,92.5C 318.953,93.4584 319.619,94.2917 320.5,95C 324.841,95.0932 329.174,95.0932 333.5,95C 336.041,96.8484 337.041,99.3484 336.5,102.5C 336.204,104.403 335.537,106.07 334.5,107.5C 334.565,107.062 334.399,106.728 334,106.5C 331.54,107.958 329.373,109.791 327.5,112C 322.474,113.494 318.308,112.327 315,108.5C 314.25,109.126 313.416,109.626 312.5,110C 295.833,110.333 279.167,110.667 262.5,111C 260.112,112.861 257.446,114.194 254.5,115C 230.571,117.46 206.571,118.126 182.5,117C 179.977,116.482 177.977,115.148 176.5,113C 154.194,112.714 132.028,111.214 110,108.5C 105.592,108.811 101.425,109.811 97.5,111.5C 97.634,113.292 97.3007,114.958 96.5,116.5C 94.2677,117.869 91.9344,118.869 89.5,119.5C 86.8563,119.285 84.523,119.285 82.5,119.5C 81.1667,114.5 79.8333,109.5 78.5,104.5C 78.0339,100.838 78.7006,97.5046 80.5,94.5C 91.988,93.5051 103.655,93.1717 115.5,93.5C 122.27,95.1339 129.27,96.1339 136.5,96.5C 176.826,95.7077 217.159,95.2077 257.5,95C 260.379,94.454 263.046,93.6206 265.5,92.5 Z M 145.5,173.5 C 145.167,174.5 144.5,175.167 143.5,175.5C 143.5,174.167 144.167,173.5 145.5,173.5 Z M 199.5,229.5 C 199.167,230.5 198.5,231.167 197.5,231.5C 197.5,230.167 198.167,229.5 199.5,229.5 Z M 310.5,312.5 C 310.573,314.027 309.906,315.027 308.5,315.5C 308.427,313.973 309.094,312.973 310.5,312.5 Z M 193.5,321.5 C 193.027,322.906 192.027,323.573 190.5,323.5C 190.973,322.094 191.973,321.427 193.5,321.5 Z"/></g>
<g><path style="opacity:0.537" fill="#fbfbfb" d="M 334.5,107.5 C 334.5,108.167 334.5,108.833 334.5,109.5C 333.833,109.5 333.5,109.833 333.5,110.5C 333.167,111.167 332.833,111.833 332.5,112.5C 332.5,112.833 332.5,113.167 332.5,113.5C 331.662,113.842 331.328,114.508 331.5,115.5C 308.198,113.753 284.864,113.253 261.5,114C 247.991,120.026 233.824,122.526 219,121.5C 208.481,121.399 197.981,120.899 187.5,120C 167.89,117.09 148.224,114.59 128.5,112.5C 122.833,111.167 117.167,111.167 111.5,112.5C 106.282,113.076 101.282,114.409 96.5,116.5C 97.3007,114.958 97.634,113.292 97.5,111.5C 101.425,109.811 105.592,108.811 110,108.5C 132.028,111.214 154.194,112.714 176.5,113C 177.977,115.148 179.977,116.482 182.5,117C 206.571,118.126 230.571,117.46 254.5,115C 257.446,114.194 260.112,112.861 262.5,111C 279.167,110.667 295.833,110.333 312.5,110C 313.416,109.626 314.25,109.126 315,108.5C 318.308,112.327 322.474,113.494 327.5,112C 329.373,109.791 331.54,107.958 334,106.5C 334.399,106.728 334.565,107.062 334.5,107.5 Z"/></g>
<g><path style="opacity:0.536" fill="#f6f6f6" d="M 75.5,94.5 C 77.1667,94.5 78.8333,94.5 80.5,94.5C 78.7006,97.5046 78.0339,100.838 78.5,104.5C 77.8333,103.5 77.1667,102.5 76.5,101.5C 76.7678,99.901 76.4345,98.5676 75.5,97.5C 75.5,96.5 75.5,95.5 75.5,94.5 Z"/></g>
<g><path style="opacity:0.963" fill="#fa7f00" d="M 340.5,93.5 C 345.875,93.1718 351.208,93.5052 356.5,94.5C 355.269,97.5905 354.269,100.757 353.5,104C 353.095,104.945 352.428,105.612 351.5,106C 352.059,106.725 352.392,107.558 352.5,108.5C 351.207,110.748 350.207,113.082 349.5,115.5C 348.058,116.82 347.392,118.486 347.5,120.5C 322.424,184.069 297.758,247.736 273.5,311.5C 272.833,311.5 272.5,311.833 272.5,312.5C 263.438,337.677 253.772,362.677 243.5,387.5C 238.516,386.012 234.183,383.512 230.5,380C 230.743,379.098 231.077,378.265 231.5,377.5C 231.5,377.167 231.5,376.833 231.5,376.5C 232.789,373.24 234.122,369.906 235.5,366.5C 236.338,366.158 236.672,365.492 236.5,364.5C 237.99,360.018 239.657,355.684 241.5,351.5C 242.338,351.158 242.672,350.492 242.5,349.5C 242.557,348.391 242.89,347.391 243.5,346.5C 243.5,346.167 243.5,345.833 243.5,345.5C 244.789,342.24 246.122,338.906 247.5,335.5C 248.338,335.158 248.672,334.492 248.5,333.5C 248.833,332.833 249.167,332.167 249.5,331.5C 249.5,331.167 249.5,330.833 249.5,330.5C 250.657,327.016 251.99,323.683 253.5,320.5C 254.338,320.158 254.672,319.492 254.5,318.5C 254.5,317.833 254.5,317.167 254.5,316.5C 255.338,316.158 255.672,315.492 255.5,314.5C 256.833,311.167 258.167,307.833 259.5,304.5C 260.833,304.167 260.833,303.833 259.5,303.5C 260.11,302.609 260.443,301.609 260.5,300.5C 261.167,300.5 261.5,300.167 261.5,299.5C 263.165,294.838 264.832,290.172 266.5,285.5C 267.338,285.158 267.672,284.492 267.5,283.5C 268.635,280.098 269.968,276.765 271.5,273.5C 272.833,273.167 272.833,272.833 271.5,272.5C 272.11,271.609 272.443,270.609 272.5,269.5C 273.167,269.5 273.5,269.167 273.5,268.5C 273.833,267.833 274.167,267.167 274.5,266.5C 274.5,266.167 274.5,265.833 274.5,265.5C 275.832,261.838 277.165,258.172 278.5,254.5C 279.338,254.158 279.672,253.492 279.5,252.5C 279.5,252.167 279.5,251.833 279.5,251.5C 280.167,251.5 280.5,251.167 280.5,250.5C 281.512,247.743 282.512,245.076 283.5,242.5C 284.833,242.167 284.833,241.833 283.5,241.5C 284.11,240.609 284.443,239.609 284.5,238.5C 285.167,238.5 285.5,238.167 285.5,237.5C 285.833,236.833 286.167,236.167 286.5,235.5C 286.5,235.167 286.5,234.833 286.5,234.5C 287.832,230.838 289.165,227.172 290.5,223.5C 291.338,223.158 291.672,222.492 291.5,221.5C 291.5,221.167 291.5,220.833 291.5,220.5C 292.167,220.5 292.5,220.167 292.5,219.5C 293.833,215.5 295.167,211.5 296.5,207.5C 297.167,207.5 297.5,207.167 297.5,206.5C 297.5,206.167 297.5,205.833 297.5,205.5C 298.338,205.158 298.672,204.492 298.5,203.5C 299.835,199.828 301.168,196.162 302.5,192.5C 303.338,192.158 303.672,191.492 303.5,190.5C 303.5,190.167 303.5,189.833 303.5,189.5C 304.167,189.5 304.5,189.167 304.5,188.5C 304.557,187.391 304.89,186.391 305.5,185.5C 305.5,185.167 305.5,184.833 305.5,184.5C 306.871,182.064 307.871,179.397 308.5,176.5C 309.167,176.5 309.5,176.167 309.5,175.5C 309.5,175.167 309.5,174.833 309.5,174.5C 310.338,174.158 310.672,173.492 310.5,172.5C 312.031,168.574 313.364,164.574 314.5,160.5C 315.167,160.5 315.5,160.167 315.5,159.5C 315.5,159.167 315.5,158.833 315.5,158.5C 316.167,158.5 316.5,158.167 316.5,157.5C 316.557,156.391 316.89,155.391 317.5,154.5C 317.5,154.167 317.5,153.833 317.5,153.5C 318.892,150.993 319.892,148.327 320.5,145.5C 321.167,145.5 321.5,145.167 321.5,144.5C 321.5,144.167 321.5,143.833 321.5,143.5C 322.338,143.158 322.672,142.492 322.5,141.5C 322.5,140.833 322.5,140.167 322.5,139.5C 323.167,139.5 323.5,139.167 323.5,138.5C 324.833,134.833 326.167,131.167 327.5,127.5C 328.167,127.5 328.5,127.167 328.5,126.5C 328.5,125.5 328.5,124.5 328.5,123.5C 329.167,123.5 329.5,123.167 329.5,122.5C 329.833,121.833 330.167,121.167 330.5,120.5C 330.629,118.784 330.962,117.117 331.5,115.5C 331.328,114.508 331.662,113.842 332.5,113.5C 333.833,113.167 333.833,112.833 332.5,112.5C 332.833,111.833 333.167,111.167 333.5,110.5C 334.167,110.5 334.5,110.167 334.5,109.5C 334.5,108.833 334.5,108.167 334.5,107.5C 335.537,106.07 336.204,104.403 336.5,102.5C 337.486,100.574 338.486,98.5739 339.5,96.5C 340.167,96.5 340.5,96.1667 340.5,95.5C 340.5,94.8333 340.5,94.1667 340.5,93.5 Z"/></g>
<g><path style="opacity:0.45" fill="#fdfcfc" d="M 318.5,92.5 C 325.92,92.2027 333.254,92.536 340.5,93.5C 340.5,94.1667 340.5,94.8333 340.5,95.5C 339.833,95.5 339.5,95.8333 339.5,96.5C 338.486,98.5739 337.486,100.574 336.5,102.5C 337.041,99.3484 336.041,96.8484 333.5,95C 329.174,95.0932 324.841,95.0932 320.5,95C 319.619,94.2917 318.953,93.4584 318.5,92.5 Z"/></g>
<g><path style="opacity:0.422" fill="#fcfcfc" d="M 265.5,92.5 C 263.046,93.6206 260.379,94.454 257.5,95C 217.159,95.2077 176.826,95.7077 136.5,96.5C 129.27,96.1339 122.27,95.1339 115.5,93.5C 165.494,92.6208 215.494,92.2875 265.5,92.5 Z"/></g>
<g><path style="opacity:0.994" fill="#03b000" d="M 330.5,120.5 C 330.167,121.167 329.833,121.833 329.5,122.5C 328.833,122.5 328.5,122.833 328.5,123.5C 328.5,124.5 328.5,125.5 328.5,126.5C 327.833,126.5 327.5,126.833 327.5,127.5C 326.167,131.167 324.833,134.833 323.5,138.5C 322.833,138.5 322.5,138.833 322.5,139.5C 322.5,140.167 322.5,140.833 322.5,141.5C 321.662,141.842 321.328,142.508 321.5,143.5C 321.5,143.833 321.5,144.167 321.5,144.5C 320.833,144.5 320.5,144.833 320.5,145.5C 319.892,148.327 318.892,150.993 317.5,153.5C 316.167,153.833 316.167,154.167 317.5,154.5C 316.89,155.391 316.557,156.391 316.5,157.5C 315.833,157.5 315.5,157.833 315.5,158.5C 315.5,158.833 315.5,159.167 315.5,159.5C 314.833,159.5 314.5,159.833 314.5,160.5C 313.364,164.574 312.031,168.574 310.5,172.5C 309.662,172.842 309.328,173.508 309.5,174.5C 309.5,174.833 309.5,175.167 309.5,175.5C 308.833,175.5 308.5,175.833 308.5,176.5C 307.871,179.397 306.871,182.064 305.5,184.5C 304.167,184.833 304.167,185.167 305.5,185.5C 304.89,186.391 304.557,187.391 304.5,188.5C 303.833,188.5 303.5,188.833 303.5,189.5C 303.5,189.833 303.5,190.167 303.5,190.5C 302.662,190.842 302.328,191.508 302.5,192.5C 301.168,196.162 299.835,199.828 298.5,203.5C 297.662,203.842 297.328,204.508 297.5,205.5C 297.5,205.833 297.5,206.167 297.5,206.5C 296.833,206.5 296.5,206.833 296.5,207.5C 295.167,211.5 293.833,215.5 292.5,219.5C 291.833,219.5 291.5,219.833 291.5,220.5C 291.5,220.833 291.5,221.167 291.5,221.5C 290.662,221.842 290.328,222.508 290.5,223.5C 289.165,227.172 287.832,230.838 286.5,234.5C 285.167,234.833 285.167,235.167 286.5,235.5C 286.167,236.167 285.833,236.833 285.5,237.5C 284.833,237.5 284.5,237.833 284.5,238.5C 284.443,239.609 284.11,240.609 283.5,241.5C 283.5,241.833 283.5,242.167 283.5,242.5C 282.512,245.076 281.512,247.743 280.5,250.5C 279.833,250.5 279.5,250.833 279.5,251.5C 279.5,251.833 279.5,252.167 279.5,252.5C 278.662,252.842 278.328,253.508 278.5,254.5C 277.165,258.172 275.832,261.838 274.5,265.5C 273.167,265.833 273.167,266.167 274.5,266.5C 274.167,267.167 273.833,267.833 273.5,268.5C 272.833,268.5 272.5,268.833 272.5,269.5C 272.443,270.609 272.11,271.609 271.5,272.5C 271.5,272.833 271.5,273.167 271.5,273.5C 269.968,276.765 268.635,280.098 267.5,283.5C 266.662,283.842 266.328,284.508 266.5,285.5C 264.832,290.172 263.165,294.838 261.5,299.5C 260.833,299.5 260.5,299.833 260.5,300.5C 260.443,301.609 260.11,302.609 259.5,303.5C 259.5,303.833 259.5,304.167 259.5,304.5C 258.167,307.833 256.833,311.167 255.5,314.5C 254.662,314.842 254.328,315.508 254.5,316.5C 254.5,317.167 254.5,317.833 254.5,318.5C 253.662,318.842 253.328,319.508 253.5,320.5C 251.99,323.683 250.657,327.016 249.5,330.5C 248.167,330.833 248.167,331.167 249.5,331.5C 249.167,332.167 248.833,332.833 248.5,333.5C 247.662,333.842 247.328,334.508 247.5,335.5C 246.122,338.906 244.789,342.24 243.5,345.5C 242.167,345.833 242.167,346.167 243.5,346.5C 242.89,347.391 242.557,348.391 242.5,349.5C 241.662,349.842 241.328,350.508 241.5,351.5C 239.657,355.684 237.99,360.018 236.5,364.5C 235.662,364.842 235.328,365.508 235.5,366.5C 234.122,369.906 232.789,373.24 231.5,376.5C 230.167,376.833 230.167,377.167 231.5,377.5C 231.077,378.265 230.743,379.098 230.5,380C 234.183,383.512 238.516,386.012 243.5,387.5C 253.772,362.677 263.438,337.677 272.5,312.5C 273.167,312.5 273.5,312.167 273.5,311.5C 297.758,247.736 322.424,184.069 347.5,120.5C 372.167,120.5 396.833,120.5 421.5,120.5C 421.5,121.5 421.5,122.5 421.5,123.5C 420.549,124.919 420.216,126.585 420.5,128.5C 419.51,131.739 418.51,135.072 417.5,138.5C 416.566,139.568 416.232,140.901 416.5,142.5C 415.566,143.568 415.232,144.901 415.5,146.5C 414.549,147.919 414.216,149.585 414.5,151.5C 412.877,155.978 411.544,160.645 410.5,165.5C 409.549,166.919 409.216,168.585 409.5,170.5C 408.549,171.919 408.216,173.585 408.5,175.5C 406.797,179.617 405.463,183.95 404.5,188.5C 403.549,189.919 403.216,191.585 403.5,193.5C 402.566,194.568 402.232,195.901 402.5,197.5C 401.549,198.919 401.216,200.585 401.5,202.5C 400.198,205.322 399.198,207.988 398.5,210.5C 397.167,210.833 397.167,211.167 398.5,211.5C 398.5,211.833 398.5,212.167 398.5,212.5C 397.596,213.209 397.263,214.209 397.5,215.5C 396.549,216.919 396.216,218.585 396.5,220.5C 395.549,221.919 395.216,223.585 395.5,225.5C 394.512,228.076 393.512,230.743 392.5,233.5C 391.167,233.833 391.167,234.167 392.5,234.5C 392.167,235.833 391.833,237.167 391.5,238.5C 390.549,239.919 390.216,241.585 390.5,243.5C 389.051,248.04 387.718,252.707 386.5,257.5C 385.596,258.209 385.263,259.209 385.5,260.5C 384.549,261.919 384.216,263.585 384.5,265.5C 383.549,266.919 383.216,268.585 383.5,270.5C 381.796,274.617 380.463,278.951 379.5,283.5C 378.549,284.919 378.216,286.585 378.5,288.5C 377.549,289.919 377.216,291.585 377.5,293.5C 376.129,295.936 375.129,298.603 374.5,301.5C 373.167,301.833 373.167,302.167 374.5,302.5C 373.766,303.708 373.433,305.041 373.5,306.5C 372.549,307.919 372.216,309.585 372.5,311.5C 371.596,312.209 371.263,313.209 371.5,314.5C 370.257,317.677 369.257,321.01 368.5,324.5C 367.566,325.568 367.232,326.901 367.5,328.5C 366.566,329.568 366.232,330.901 366.5,332.5C 365.549,333.919 365.216,335.585 365.5,337.5C 364.031,341.687 362.698,346.02 361.5,350.5C 360.549,351.919 360.216,353.585 360.5,355.5C 359.566,356.568 359.232,357.901 359.5,359.5C 357.584,363.924 356.251,368.59 355.5,373.5C 354.596,374.209 354.263,375.209 354.5,376.5C 353.549,377.919 353.216,379.585 353.5,381.5C 352.549,382.919 352.216,384.585 352.5,386.5C 351.129,388.936 350.129,391.603 349.5,394.5C 348.549,395.919 348.216,397.585 348.5,399.5C 347.596,400.209 347.263,401.209 347.5,402.5C 346.549,403.919 346.216,405.585 346.5,407.5C 345.511,410.726 344.511,414.06 343.5,417.5C 342.596,418.209 342.263,419.209 342.5,420.5C 341.549,421.919 341.216,423.585 341.5,425.5C 340.076,427.515 339.41,429.848 339.5,432.5C 301.37,434.015 263.37,435.015 225.5,435.5C 207.831,435.718 190.164,436.052 172.5,436.5C 172.5,435.833 172.167,435.5 171.5,435.5C 171.011,434.005 170.345,432.671 169.5,431.5C 169.784,429.585 169.451,427.919 168.5,426.5C 168.737,425.209 168.404,424.209 167.5,423.5C 167.5,423.167 167.5,422.833 167.5,422.5C 168.833,422.167 168.833,421.833 167.5,421.5C 167.737,420.209 167.404,419.209 166.5,418.5C 165.49,415.076 164.49,411.743 163.5,408.5C 163.737,407.209 163.404,406.209 162.5,405.5C 162.784,403.585 162.451,401.919 161.5,400.5C 161.167,399.167 160.833,397.833 160.5,396.5C 161.833,396.167 161.833,395.833 160.5,395.5C 159.488,392.743 158.488,390.076 157.5,387.5C 157.784,385.585 157.451,383.919 156.5,382.5C 156.737,381.209 156.404,380.209 155.5,379.5C 155.784,377.585 155.451,375.919 154.5,374.5C 153.302,370.02 151.969,365.687 150.5,361.5C 150.784,359.585 150.451,357.919 149.5,356.5C 149.443,355.391 149.11,354.391 148.5,353.5C 149.833,353.167 149.833,352.833 148.5,352.5C 147.871,349.603 146.871,346.936 145.5,344.5C 145.784,342.585 145.451,340.919 144.5,339.5C 144.784,337.585 144.451,335.919 143.5,334.5C 143.737,333.209 143.404,332.209 142.5,331.5C 142.567,330.041 142.234,328.708 141.5,327.5C 141.938,327.565 142.272,327.399 142.5,327C 140.642,324.376 139.309,321.543 138.5,318.5C 138.784,316.585 138.451,314.919 137.5,313.5C 137.768,311.901 137.434,310.568 136.5,309.5C 135.89,308.609 135.557,307.609 135.5,306.5C 136.833,306.167 136.833,305.833 135.5,305.5C 134.368,302.449 133.368,299.449 132.5,296.5C 132.784,294.585 132.451,292.919 131.5,291.5C 131.737,290.209 131.404,289.209 130.5,288.5C 130.567,287.041 130.234,285.708 129.5,284.5C 130.833,284.167 130.833,283.833 129.5,283.5C 128.488,280.743 127.488,278.076 126.5,275.5C 126.768,273.901 126.434,272.568 125.5,271.5C 125.784,269.585 125.451,267.919 124.5,266.5C 124.737,265.209 124.404,264.209 123.5,263.5C 122.408,258.987 121.074,254.654 119.5,250.5C 119.784,248.585 119.451,246.919 118.5,245.5C 117.285,241.368 115.951,237.368 114.5,233.5C 114.784,231.585 114.451,229.919 113.5,228.5C 113.737,227.209 113.404,226.209 112.5,225.5C 112.784,223.585 112.451,221.919 111.5,220.5C 110.302,216.02 108.969,211.687 107.5,207.5C 107.768,205.901 107.434,204.568 106.5,203.5C 106.768,201.901 106.434,200.568 105.5,199.5C 105.443,198.391 105.11,197.391 104.5,196.5C 105.833,196.167 105.833,195.833 104.5,195.5C 103.302,191.02 101.969,186.687 100.5,182.5C 100.768,180.901 100.434,179.568 99.5,178.5C 98.4078,173.987 97.0745,169.654 95.5,165.5C 95.7373,164.209 95.404,163.209 94.5,162.5C 94.7845,160.585 94.4511,158.919 93.5,157.5C 93.4431,156.391 93.1098,155.391 92.5,154.5C 93.8333,154.167 93.8333,153.833 92.5,153.5C 91.871,150.603 90.871,147.936 89.5,145.5C 89.7845,143.585 89.4511,141.919 88.5,140.5C 88.7678,138.901 88.4345,137.568 87.5,136.5C 87.7373,135.209 87.404,134.209 86.5,133.5C 85.7691,131.401 85.7691,129.401 86.5,127.5C 93.2089,121.312 101.209,118.145 110.5,118C 120.167,117.333 129.833,117.333 139.5,118C 173.829,125.6 208.496,127.933 243.5,125C 249.892,123.153 256.225,121.153 262.5,119C 285.199,118.361 307.866,118.861 330.5,120.5 Z M 145.5,173.5 C 145.167,174.5 144.5,175.167 143.5,175.5C 143.5,174.167 144.167,173.5 145.5,173.5 Z M 199.5,229.5 C 199.167,230.5 198.5,231.167 197.5,231.5C 197.5,230.167 198.167,229.5 199.5,229.5 Z M 310.5,312.5 C 310.573,314.027 309.906,315.027 308.5,315.5C 308.427,313.973 309.094,312.973 310.5,312.5 Z M 193.5,321.5 C 193.027,322.906 192.027,323.573 190.5,323.5C 190.973,322.094 191.973,321.427 193.5,321.5 Z"/></g>
<g><path style="opacity:0.609" fill="#f3f3f3" d="M 89.5,119.5 C 88.0858,121.054 86.4192,122.388 84.5,123.5C 83.8182,122.757 83.1515,122.091 82.5,121.5C 82.5,120.833 82.5,120.167 82.5,119.5C 84.523,119.285 86.8563,119.285 89.5,119.5 Z"/></g>
<g><path style="opacity:0.985" fill="#ae0900" d="M 175.5,174.5 C 178.105,176.743 180.105,179.41 181.5,182.5C 184.011,189.211 184.011,195.877 181.5,202.5C 176.215,214.977 166.881,219.81 153.5,217C 144.786,214.287 139.619,208.454 138,199.5C 136.51,191.117 138.01,183.45 142.5,176.5C 143.167,176.5 143.5,176.167 143.5,175.5C 144.5,175.167 145.167,174.5 145.5,173.5C 148.507,169.669 152.507,168.002 157.5,168.5C 164.5,168.142 170.5,170.142 175.5,174.5 Z"/></g>
<g><path style="opacity:0.978" fill="#3e08f9" d="M 274.5,173.5 C 274.5,174.167 274.833,174.5 275.5,174.5C 285.774,188.026 284.774,201.193 272.5,214C 257.68,221.585 246.18,218.085 238,203.5C 235.268,193.895 236.435,184.895 241.5,176.5C 242.167,176.5 242.5,176.167 242.5,175.5C 243.167,175.5 243.5,175.167 243.5,174.5C 246.784,169.945 251.284,167.945 257,168.5C 263.409,168.392 269.243,170.058 274.5,173.5 Z"/></g>
<g><path style="opacity:0.977" fill="#3e07fa" d="M 345.5,191.5 C 350.509,192.505 354.842,194.839 358.5,198.5C 367.651,212.334 366.317,225.167 354.5,237C 345.873,241.509 337.207,241.509 328.5,237C 326.266,234.937 324.266,232.771 322.5,230.5C 322.34,228.847 321.674,227.514 320.5,226.5C 317.969,218.728 317.969,211.395 320.5,204.5C 320.833,203.833 321.167,203.167 321.5,202.5C 322.488,201.205 323.488,199.872 324.5,198.5C 325.5,197.5 326.5,196.5 327.5,195.5C 332.569,190.514 338.569,189.181 345.5,191.5 Z"/></g>
<g><path style="opacity:0.978" fill="#3e07fa" d="M 229.5,232.5 C 229.5,233.167 229.833,233.5 230.5,233.5C 239.486,246.854 238.153,259.354 226.5,271C 212.395,278.58 200.895,275.747 192,262.5C 188.582,254.045 188.749,245.712 192.5,237.5C 193.338,237.158 193.672,236.492 193.5,235.5C 194.167,235.5 194.5,235.167 194.5,234.5C 195.272,233.306 196.272,232.306 197.5,231.5C 198.5,231.167 199.167,230.5 199.5,229.5C 200.167,229.5 200.5,229.167 200.5,228.5C 210.907,223.733 220.574,225.066 229.5,232.5 Z"/></g>
<g><path style="opacity:0.982" fill="#ae0800" d="M 330.5,307.5 C 331.919,308.451 333.585,308.784 335.5,308.5C 335.842,309.338 336.508,309.672 337.5,309.5C 339.142,310.803 340.809,312.136 342.5,313.5C 342.5,314.167 342.833,314.5 343.5,314.5C 352.719,328.311 351.386,340.977 339.5,352.5C 324.827,359.583 313.161,356.249 304.5,342.5C 304.784,340.585 304.451,338.919 303.5,337.5C 303.5,333.833 303.5,330.167 303.5,326.5C 304.199,322.406 305.866,318.739 308.5,315.5C 309.906,315.027 310.573,314.027 310.5,312.5C 311.167,312.5 311.5,312.167 311.5,311.5C 312.71,311.068 313.71,310.401 314.5,309.5C 315.167,309.5 315.5,309.167 315.5,308.5C 316.492,308.672 317.158,308.338 317.5,307.5C 321.801,306.227 326.135,306.227 330.5,307.5 Z"/></g>
<g><path style="opacity:0.978" fill="#3e08f9" d="M 215.5,319.5 C 215.842,320.338 216.508,320.672 217.5,320.5C 218.671,321.345 220.005,322.011 221.5,322.5C 221.5,323.167 221.833,323.5 222.5,323.5C 222.5,324.167 222.833,324.5 223.5,324.5C 223.5,325.167 223.833,325.5 224.5,325.5C 233.292,338.948 231.959,351.448 220.5,363C 206.395,370.58 194.895,367.747 186,354.5C 182.582,346.045 182.749,337.712 186.5,329.5C 187.338,329.158 187.672,328.492 187.5,327.5C 188.167,327.5 188.5,327.167 188.5,326.5C 189.401,325.71 190.068,324.71 190.5,323.5C 192.027,323.573 193.027,322.906 193.5,321.5C 194.167,321.5 194.5,321.167 194.5,320.5C 201.222,316.851 208.222,316.518 215.5,319.5 Z"/></g>
</svg>
